<svg xmlns="http://www.w3.org/2000/svg" viewBox="0 0 348 348" fill="none"><path d="M5.079 5.776h336.913v337.67H5.08z" stroke-width="2" stroke="#000"/><path d="M282.734 40.554c0-8.376 6.966-15.165 15.56-15.165 4.126 0 8.084 1.597 11.001 4.441 2.918 2.844 4.558 6.702 4.558 10.724 0 8.376-6.966 15.165-15.56 15.165-8.593 0-15.559-6.79-15.559-15.165z" stroke-width="2" stroke="#000"/><path stroke="#000" stroke-width="3.6737" d="M15.849708 16.45645h193.87363v240.36971H15.849708z"/><path d="M225.04869 90.46962h102.09738v135.13652H225.04869Z" stroke="#000" stroke-width="3.39279"/><path d="M231.01862 96.606628h26.15035v26.150352h-26.15035zM262.99506 96.606628h26.15035v26.150352h-26.15035zM294.55389 96.606628h26.15036v26.150352h-26.15036zM231.01862 128.60663h26.15035v26.15035h-26.15035zM262.99506 128.60663h26.15035v26.15035h-26.15035zM294.55389 128.60663h26.15036v26.15035h-26.15036zM231.01862 160.60663h26.15035v26.15035h-26.15035zM262.99506 160.60663h26.15035v26.15035h-26.15035zM294.55389 160.60663h26.15036v26.15035h-26.15036zM231.01862 192.60663h26.15035v26.15035h-26.15035zM262.99506 192.60663h26.15035v26.15035h-26.15035zM294.55389 192.60663h26.15036v26.15035h-26.15036z" stroke="#000" stroke-width="3.55458"/><path fill="#000" stroke="#000" stroke-width="3.77953" d="M19.116104 277.61798h186.81648v36.928841H19.116104z"/><path stroke="#000" stroke-width="3.24545" d="M224.69144 258.34433h21.368706v71.566002H224.69144zM304.69144 258.34433h21.368706v71.566002H304.69144z"/><path stroke="#000" stroke-width="2.44669" d="M246.28116 259.28375h58.189285v13.297622H246.28116zM246.28116 315.48334h58.189285v13.297622H246.28116z"/><path d="M262.17939 281.32817a13.033708 13.033708 0 0 0-12.90039 13.03321 13.033708 13.033708 0 0 0 13.0332 13.03515 13.033708 13.033708 0 0 0 4.41992-.77344h17.16211a13.033708 13.033708 0 0 0 4.41797.77344 13.033708 13.033708 0 0 0 13.03321-13.03515 13.033708 13.033708 0 0 0-13.03321-13.03321 13.033708 13.033708 0 0 0-2.95117.33985h-20.09375a13.033708 13.033708 0 0 0-2.95508-.33985 13.033708 13.033708 0 0 0-.13281 0z" stroke="#000" stroke-width="2.5"/><path d="M242.04277 118q.17541-1.92947.28817-4.38515l.23805-5.0116q.12529-2.55592.16288-4.39768-.56381.35081-.8645.55127-.28817.18794-1.45337.98979.0627-.78932.10023-1.76659.0501-.97726.0501-1.50348.43851-.25058 1.14014-.67656.70162-.42599.87703-.53875.17541-.12529.4761-.36334.73921.0251 1.79165.0251 1.02738 0 1.94199-.0251l-.13781 1.70394q-.0501.58887-.11277 1.69142l-.50116 9.96056-.0376 1.49095q-.0125.46357-.0125.93967L246.00194 118q-.85197-.0251-1.8543-.0251-1.16519 0-2.10487.0251z" aria-label="1" style="line-height:1.25;-inkscape-font-specification:'Eras Demi ITC'" font-size="25.6594" font-family="Eras Demi ITC" fill="#000" stroke-width=".641486"/><path d="M269.40599 118q.0376-.4761.0376-.76427l.0752-1.82923q1.56612-1.40325 2.85661-2.70627 1.30302-1.31554 2.65615-2.8065 1.35313-1.50348 2.04223-2.41809.5638-.73921.75174-1.10256.18793-.37587.25058-.62645.0626-.26311.0626-.52621 0-.6891-.41345-1.11509-.41346-.43851-1.14014-.67656-.71416-.25058-1.66636-.25058-.87703 0-1.90441.16287-1.02738.15035-2.64362.56381l.23805-1.26543q.0752-.45104.22552-1.51601 2.8942-.52622 5.56288-.52622 1.21532 0 2.34293.23805 1.12761.22553 2.00464.78933.88956.55128 1.29048 1.29049.41346.72668.41346 1.52854 0 .4761-.10023.9522-.0877.46357-.26311.85197-.33828.7768-.8645 1.56613-.51369.78933-1.62877 2.10487-1.10255 1.31555-2.4181 2.69374-1.30302 1.37819-2.90673 2.8942h1.14014l2.79397-.0125q1.39072 0 2.04223-.0251.6515-.0376 1.56612-.12529-.0251.3884-.0877 1.01485-.0501.61392-.12529 1.6413-2.84409-.0251-5.91369-.0251-3.7587 0-6.27703.0251z" aria-label="2" style="line-height:1.25;-inkscape-font-specification:'Eras Demi ITC'" font-size="25.6594" font-family="Eras Demi ITC" fill="#000" stroke-width=".641486"/><path d="M301.15682 117.64919q-.10023-1.70395-.25058-2.94432 2.60604.93968 4.82367.93968 1.10255 0 1.99211-.35081.90209-.35082 1.41578-1.00233.52622-.66403.52622-1.55359 0-.75174-.43852-1.31555-.42598-.57633-1.35313-.85197-.91462-.28817-2.36798-.28817-.92715 0-1.91694.11276.12529-1.44083.20046-2.73132.73922.12529 1.45337.12529 1.10255 0 2.09234-.21299 1.00232-.21299 1.5536-.8645.55128-.66404.55128-1.44084 0-.31322-.10024-.60139-.0877-.3007-.26311-.53875-.16287-.25058-.42598-.43851-.25058-.18794-.56381-.3007-.31322-.12529-.85197-.20046-.53875-.0752-1.15267-.0752-.82691 0-1.71647.11276-.87703.10024-2.24269.40093l.23805-1.03991.30069-1.64129q1.44084-.20047 2.43063-.27564.98979-.0752 2.14246-.0752 1.31555 0 2.54339.213 1.24037.21299 2.1174.73921t1.29049 1.36566q.42598.83944.42598 1.84176 0 .65151-.18793 1.29049-.18794.62645-.56381 1.1652-.36334.53874-.82691.88956-.45104.35081-.88956.5638-.43851.21299-1.27796.50116.90209.13782 1.37819.31323.4761.16287.93968.51369.46357.33828.78932.80185.32576.45105.48864 1.05244.16287.58886.16287 1.24037 0 1.17773-.5638 2.23016-.55128 1.03991-1.61624 1.72901-1.05244.68909-2.40557.96473-1.35313.28817-2.81903.28817-1.07749 0-2.23016-.13782t-2.83156-.51369z" aria-label="3" style="line-height:1.25;-inkscape-font-specification:'Eras Demi ITC'" font-size="25.6594" font-family="Eras Demi ITC" fill="#000" stroke-width=".641486"/><path d="M243.62143 150q.23805-2.51833.32575-5.16195h-2.53086l-4.61067.0752q.0251-.16287.0752-1.39072.0626-1.24037.0626-1.69141l.93967-1.19026q.35081-.46357 1.09003-1.46589l2.70626-3.70859q.37587-.53874.75174-1.10255.3884-.5638.97726-1.46589 1.51601.0251 2.49328.0251.9522 0 2.19257-.0251-.37587 5.34988-.46357 9.32158.60139.0125 1.4283.0125.97727 0 1.31555-.0376-.0376.97726-.0376 2.25522v.42599q-.76427-.0501-2.80649-.0501-.0376.57634-.0627 1.05244-.0125.4761-.0376 1.67888-.0125 1.20279-.0125 1.72901V150q-.96474-.0251-1.84177-.0251-.80185 0-1.95452.0251zm.80185-7.65522q.0376-.72668.0376-.83944l.23805-6.07657q-1.90441 2.76891-2.5058 3.57076l-2.43063 3.34525z" aria-label="4" style="line-height:1.25;-inkscape-font-specification:'Eras Demi ITC'" font-size="25.6594" font-family="Eras Demi ITC" fill="#000" stroke-width=".641486"/><path d="m270.19531 149.76195-.0626-.98979q-.0251-.40093-.0627-.80186-.0376-.40093-.12529-1.06496 2.34293.67656 4.00929.67656 1.17772 0 2.14246-.40093.97726-.40092 1.51601-1.16519.55127-.7768.55127-1.66636 0-.7768-.42598-1.35313-.41346-.57634-1.29049-.87703-.8645-.31323-2.28028-.31323-.81439 0-1.60371.0752-.78933.0626-2.11741.2631.52622-5.67563.76427-9.2464 3.35778.0251 5.51277.0251 2.85661 0 5.41253-.0251-.0877 1.00232-.10024 1.50348l-.0376 1.20278q-1.11508-.0877-3.47054-.10023l-2.2051-.0251q-.55128 0-1.52854.0125l-.40093 4.33504q1.06497-.12529 1.80418-.12529 1.84176 0 3.32018.53875 1.49096.52621 2.19258 1.6413.70162 1.11508.70162 2.45568 0 1.32807-.6515 2.54339-.63898 1.20278-1.77912 1.96705-1.14014.75174-2.63109 1.10255-1.49096.35082-3.05708.35082-.55128 0-1.36566-.0752-.80186-.0752-1.34061-.16287-.53874-.0877-1.39072-.3007z" aria-label="5" style="line-height:1.25;-inkscape-font-specification:'Eras Demi ITC'" font-size="25.6594" font-family="Eras Demi ITC" fill="#000" stroke-width=".641486"/><path d="M307.57167 139.61346q.86451-.16288 1.52854-.16288 1.30302 0 2.46822.48863 1.16519.4761 1.82923 1.66636.66404 1.17772.66404 2.60603 0 1.19026-.45105 2.34292-.43851 1.14014-1.37819 2.05476-.93967.90209-2.25522 1.30302-1.31554.3884-2.76891.3884-1.27796 0-2.45568-.31323-1.17773-.32575-2.12993-1.05244-.93968-.72668-1.40325-1.8167-.45105-1.10255-.45105-2.26775 0-.88956.20047-1.97958.20046-1.09003.91462-2.66868.71415-1.59118 1.89188-3.47054 1.19025-1.87935 2.69373-3.83387h4.56056q-1.81671 2.14246-2.43063 2.94432-.8645 1.12761-1.62877 2.33039-.75174 1.19026-1.27796 2.24269-.51369 1.05244-.85197 2.0297-.20046.56381-.3007 1.14014-.10023.57633-.10023 1.11508 0 1.37819.78933 2.20511.80186.81438 2.05476.81438.92714 0 1.62877-.42598.70162-.42599 1.02738-1.15267.33828-.72669.33828-1.5536 0-.81439-.32576-1.40325-.31322-.60139-1.07749-.88956-.75174-.30069-1.57865-.30069-.51369 0-1.21532.15034 1.22784-2.01717 1.49095-2.53085z" aria-label="6" style="line-height:1.25;-inkscape-font-specification:'Eras Demi ITC'" font-size="25.6594" font-family="Eras Demi ITC" fill="#000" stroke-width=".641486"/><path d="m238.13372 182 2.90673-5.65058 3.68353-7.30441.73921-1.54107q-1.12761-.0125-1.84176-.0125-3.14478 0-6.03898.15035.10023-1.29049.13782-2.74385h12.0529q-.0752 1.37819-.11276 2.81903 0 .0125-.13782.2631l-.12529.23806q-.31323.60139-1.69142 3.42041l-2.74385 5.57541q-1.14014 2.35545-2.2051 4.78608-1.47843-.0125-2.19258-.0125z" aria-label="7" style="line-height:1.25;-inkscape-font-specification:'Eras Demi ITC'" font-size="25.6594" font-family="Eras Demi ITC" fill="#000" stroke-width=".641486"/><path d="M272.93917 173.25475q-.7768-.33828-1.19026-.61392-.40093-.28816-.78933-.77679-.37587-.48864-.5638-1.0775-.18794-.60139-.18794-1.30302 0-1.17772.51369-2.15498.52622-.97727 1.50348-1.60372.98979-.63898 2.10488-.87703 1.11508-.25058 2.34292-.25058 1.19026 0 2.30534.3007 1.11508.28817 1.90441.92715.78932.63897 1.12761 1.45336.35081.80186.35081 1.79165 0 .50116-.10023 1.00232-.0877.48863-.32576.96473-.23805.46357-.58886.85197-.35081.37587-.73921.65151-.37587.27564-1.24037.66404.83944.22552 1.2529.42599.42598.18793.81438.51368.40093.31323.66404.73922.27564.41345.41346.9522.15034.52622.15034 1.11508 0 1.20279-.55127 2.29281-.53875 1.07749-1.47842 1.74153-.93968.66404-2.23017.98979-1.29049.32576-2.63109.32576-1.30301 0-2.49327-.26311-1.19026-.25058-2.12993-.87703-.93968-.62645-1.40325-1.50348-.45104-.87703-.45104-2.00464 0-.62645.15034-1.22785.16288-.61392.50116-1.15267.33829-.55127.7768-.92714.45105-.37587.90209-.58886.45105-.22553 1.31555-.50117zm3.48306-6.21438q-1.30302 0-2.10487.7768-.78933.7768-.78933 1.95452 0 .72668.35081 1.27796.35081.53875.95221.80186.60139.26311 1.31554.26311.82692 0 1.50348-.33829.67657-.35081 1.05244-.97726.37587-.62645.37587-1.41578 0-1.05243-.72668-1.69141-.71416-.65151-1.92947-.65151zm-.31323 7.4297q-1.59118 0-2.41809.7768-.82692.77679-.82692 1.95452 0 .72668.36334 1.35313.36334.61393 1.11508.95221.75175.32575 1.59119.32575.8645 0 1.61624-.35081.75174-.35081 1.1652-1.03991.41345-.68909.41345-1.54106 0-1.14014-.77679-1.77912-.76427-.65151-2.2427-.65151z" aria-label="8" style="line-height:1.25;-inkscape-font-specification:'Eras Demi ITC'" font-size="25.6594" font-family="Eras Demi ITC" fill="#000" stroke-width=".641486"/><path d="M303.90068 182q1.6413-2.07981 2.76891-3.671 1.22784-1.74153 2.1174-3.24501.65151-1.11508 1.02738-2.05476.38839-.9522.51368-1.57865.13782-.63898.13782-1.20279 0-.92714-.33828-1.62877-.33828-.71415-.98979-1.07749-.63898-.36334-1.47842-.36334-.8645 0-1.60372.40093-.73921.3884-1.14013 1.09002-.40093.68909-.40093 1.52854 0 .80185.28816 1.40325.3007.58886.9898.92714.70162.32576 1.64129.32576.37588 0 .71416-.0626.35081-.0626.83944-.18793-.87703 1.30301-1.66636 2.60603-.71415.12529-1.27795.12529-1.50349 0-2.78144-.58886-1.26543-.6014-1.8543-1.70395-.58886-1.10255-.58886-2.44315 0-1.67889.83944-3.05708.83945-1.37819 2.46822-2.15499 1.62877-.78933 3.74617-.78933 1.41578 0 2.68121.3884 1.26543.37587 2.06728 1.15267.81439.76427 1.19026 1.82924.3884 1.05243.3884 2.04222 0 .73921-.17541 1.65383-.16288.91462-.55127 1.92947-.37588 1.01485-1.02738 2.30533-.65151 1.29049-1.57866 2.69374-.91462 1.40325-2.30533 3.40789-1.11509-.0125-2.19258-.0125z" aria-label="9" style="line-height:1.25;-inkscape-font-specification:'Eras Demi ITC'" font-size="25.6594" font-family="Eras Demi ITC" fill="#000" stroke-width=".641486"/><path d="M249.65577 198.37633v3.1949l-7.69281 3.79629 7.68028 3.80881.0125 3.16984-11.11323-5.63805v-2.70627z" aria-label="&lt;" style="line-height:1.25;-inkscape-font-specification:'Eras Demi ITC'" font-size="25.6594" font-family="Eras Demi ITC" fill="#000" stroke-width=".641486"/><path d="M276.50993 196.59721q1.97959 0 3.38283.85198 1.41578.85197 2.19258 2.71879.7768 1.86682.7768 4.36009 0 1.96706-.4761 3.92158-.47611 1.95453-1.31555 3.20743t-2.30534 1.95452q-1.45336.6891-3.11972.6891-1.60371 0-2.86914-.61393-1.2529-.62645-2.04223-1.74153-.78933-1.12761-1.10255-2.51833-.31323-1.40325-.31323-2.88167 0-2.04223.47611-4.02181.4761-1.97958 1.36566-3.29513.90209-1.32807 2.33039-1.97958 1.42831-.65151 3.01949-.65151zm-.10023 2.60604q-.4761 0-.93967.18793-.45105.18794-.88956.62645-.42599.42599-.71416 1.00232-.27564.57634-.51369 1.40325-.22552.81439-.36334 1.95452-.12529 1.12762-.12529 2.30534 0 1.70395.33829 2.78144.35081 1.06497 1.02737 1.65383.6891.58886 1.57866.58886.48863 0 .9522-.18793.46358-.20047.93968-.73921.48863-.53875.8645-1.56613.3884-1.03991.5638-2.26775.17541-1.24037.17541-2.5058 0-1.74153-.33828-2.86914-.32576-1.12761-.98979-1.74153-.66404-.62645-1.56613-.62645z" aria-label="0" style="line-height:1.25;-inkscape-font-specification:'Eras Demi ITC'" font-size="25.6594" font-family="Eras Demi ITC" fill="#000" stroke-width=".641486"/><path d="M301.20694 202.02227q3.68353.0501 6.55267.0501 2.88167 0 6.57773-.0501-.0877.73921-.13782 2.28028-3.68353-.0501-6.55267-.0501-2.88167 0-6.57773.0501.10023-1.05244.13782-2.28028zm-.26311 4.0594q3.5833.0501 6.5652.0501 3.01949 0 6.57773-.0501-.0877.87703-.13782 2.26775-3.54571-.0501-6.5652-.0501t-6.5652.0501q.10023-.93968.12529-2.26775z" aria-label="=" style="line-height:1.25;-inkscape-font-specification:'Eras Demi ITC'" font-size="25.6594" font-family="Eras Demi ITC" fill="#000" stroke-width=".641486"/><path d="M21.055 136.15366V21.021129h182.91479V251.28619H21.055Zm41.512574 84.97105v-23.67514H25.595438v47.35028h36.972136zm-34.224426.16216.171142-20.91845H60.297356l.171654 20.02975c.122027 14.23892-.04158 20.28669-.565895 20.91845-.586864.70712-3.903706.8887-16.234334.8887H28.172Zm6.860577 17.83743c-.118992-.62431-.870104-1.22838-1.669149-1.34238-1.049289-.14971-1.452798-.64513-1.452798-1.78375 0-1.60025.89095-2.11003 1.621585-.92783.220484.35675.873197.64864 1.450468.64864.577279 0 1.821735.92489 2.765458 2.05532 2.059848 2.46737 3.974654 2.07622 2.30566-.47098-.554511-.84629-1.008198-1.67269-1.008198-1.83645 0-.16376 2.321838-.39295 5.159643-.50929l5.159643-.21155-.943522 1.4366c-.518939.79013-.943522 1.88471-.943522 2.43238 0 1.65678 1.593343 1.11911 2.815674-.95013.632212-1.07025 1.699512-1.9459 2.371789-1.9459.672277 0 1.402711-.29189 1.623194-.64864.738482-1.1949 1.621585-.66503 1.621585.97295 0 1.29727-.324317 1.62159-1.621585 1.62159-1.18916 0-1.621585.34594-1.621585 1.29727 0 1.10507.432425 1.29726 2.918853 1.29726h2.918852v-4.82647c0-4.78517-.795614-6.64-2.0692-4.82398-.449141.64043-.546046.38811-.341746-.88985.352708-2.20634-.780527-2.33164-4.39971-.48647-1.399486.71349-2.628738 1.29727-2.731683 1.29727-.102946 0-.18717-.87566-.18717-1.94591 0-1.94198.0077-1.9459 3.822407-1.9459 4.402991 0 4.609835-.24738 4.609835-5.51339 0-5.266-.206844-5.51338-4.609835-5.51338-3.814695 0-3.822407-.004-3.822407-1.94591 0-1.07024.102477-1.9459.227709-1.9459.125239 0 1.606796.73326 3.292337 1.62947 3.510854 1.86674 4.205509 1.71997 3.801474-.8032-.206064-1.28687-.109593-1.54468.338789-.90533 1.243444 1.77303 2.0692-.0227 2.0692-4.49966v-4.50216h-2.918852c-2.162111 0-2.918853.25225-2.918853.97295 0 .6054.612596.97295 1.621585.97295 1.387039 0 1.621585.296 1.621585 2.04643 0 1.94147-.06085 1.99138-1.186183.97296-.652403-.59042-1.525808-1.07348-1.940901-1.07348-.415093 0-1.534928-.87566-2.488517-1.94591-.953595-1.07024-1.977445-1.9459-2.275226-1.9459-.886611 0-.61663 1.87676.5194 3.61055.583446.89046.875332 1.80449.648633 2.03118-.226697.22671-.41218.0717-.41218-.34455 0-.5093-1.590697-.75674-4.864754-.75674-4.434809 0-5.917307-.5702-4.216121-1.62159.817162-.50503.856093-2.91885.04709-2.91885-.330855 0-1.13354.67335-1.783743 1.49633-.955354 1.20921-4.871085 3.69274-5.822281 3.69274-.123565 0-.224662-.72971-.224662-1.62158 0-1.29727.324318-1.62159 1.621586-1.62159 1.008988 0 1.621584-.36755 1.621584-.97295 0-.72209-.759894-.97295-2.947269-.97295h-2.94727l.190576 4.7026c.166556 4.10984.341136 4.68999 1.385079 4.60261.874197-.0732 1.107939.23103.871687 1.13446-.505552 1.93322.513127 2.02841 3.681082.34399 2.433701-1.29401 2.988341-1.39568 3.292336-.60348.884264 2.30437.398859 2.72603-3.364062 2.92229l-3.729646.19453-.188389 5.35123-.188389 5.35123h3.918035c3.999737 0 4.479595.37639 3.554229 2.78786-.309866.80749-.73799.76728-2.887518-.27127-3.1711-1.53211-3.883651-1.53103-3.883651.005 0 .76875-.422883 1.19163-1.135109 1.13511-.953816-.0757-1.166341.57237-1.330654 4.05771-.259239 5.49883-.04261 5.90603 3.141601 5.90603 2.185663 0 2.623712-.20328 2.44611-1.13511zm16.985706-6.64849c0-.7135.291885-1.29728.648634-1.29728.356748 0 .648634.58378.648634 1.29728 0 .71349-.291886 1.29726-.648634 1.29726-.356749 0-.648634-.58377-.648634-1.29726zm-17.513117-.32433c0-.53511.291885-.97295.648633-.97295.35675 0 .648635.43784.648635.97295 0 .53513-.291885.97296-.648635.97296-.356748 0-.648633-.43783-.648633-.97296zm6.949633.5714c-.25481-.25481-.463293-2.12825-.463293-4.1632v-3.69993l-3.92587-.44415-3.925871-.44416.196226-3.04495.196224-3.04495 2.594536-.0432c4.976112-.083 4.785537.0823 4.99596-4.33502l.193112-4.05396h5.189071l.198904 3.87623c.109392 2.13193.54722 4.09769.97295 4.36835.425725.27067 2.176498.49659 3.890598.50204l3.11655.01-.197698 3.08101-.197696 3.08101-3.69951.19364-3.69951.19362-.192294 4.0225-.192294 4.02248-2.293401.19303c-1.261372.1062-2.501884-.0155-2.756694-.27025zm3.42851-5.27047c0-3.29685 2.05846-5.35475 5.356192-5.35475 3.311964 0 2.95641-1.54141-.421054-1.82537-3.220513-.27079-4.809213-1.97709-5.058087-5.43255-.263935-3.66462-1.441264-3.60072-1.704525.0925-.234397 3.28837-1.648536 4.69294-5.255084 5.21952-3.174914.46356-3.411399 1.9459-.310428 1.9459 3.320863 0 5.447084 2.02745 5.447084 5.19403 0 1.30535.186658 2.56002.414789 2.78816.841946.84193 1.531113-.34069 1.531113-2.62744zm-1.945902-6.38175c0-1.14544 1.396353-.94596 1.797255.25675.141213.42363-.205396.77025-.770252.77025-.564851 0-1.027003-.46215-1.027003-1.027zm-8.432241-10.97273c0-.53512.291885-.97295.648633-.97295.35675 0 .648635.43783.648635.97295 0 .53513-.291885.97295-.648635.97295-.356748 0-.648633-.43782-.648633-.97295zm17.513117 0c0-.53512.291885-.97295.648634-.97295.356748 0 .648634.43783.648634.97295 0 .53513-.291886.97295-.648634.97295-.356749 0-.648634-.43782-.648634-.97295zm56.431159 11.02678v-23.67514H70.999817v47.35028h37.620773zm-34.377605 0v-21.10367l15.729375.17369 15.72938.17369V241.881l-15.72938.17369-15.729375.17368zm30.485815 14.30823c0-5.08601-.8228-6.66788-2.36862-4.55384-.80081 1.09516-.87456 1.02148-.87456-.87385v-2.06989H90.210168c-10.891199 0-11.287521.0462-11.629897 1.35543-.268365 1.02624-.680566 1.25192-1.697235.92924-1.282206-.40696-1.342782-.19012-1.342782 4.8066v5.23278H104.7288Zm-25.134584 2.42281c-.802685-.15461-1.459427-.57207-1.459427-.9277 0-.92404 3.414112-.39855 3.733674.57466.146429.44594.02303.77105-.274294.72247-.297289-.0486-1.197269-.21483-1.999953-.36943zm19.000564-1.00166c.439717-1.14407 3.53948-1.22599 3.53948-.0936 0 .57027-.71131.90434-1.92555.90434-1.274223 0-1.820147-.27426-1.61393-.8108zm-17.216821-5.32185c0-.56593.914296-1.11507 2.284508-1.37212 2.688375-.50435 14.973007-.10207 15.58545.51042 1.331633 1.33161-1.069503 1.80527-9.151681 1.80527-7.196458 0-8.718277-.16471-8.718277-.94357zm23.026511-10.08321v-5.51339H75.864571l-.187592 5.68803-.187597 5.68802 14.457545-.17464 14.457543-.17464zm-26.655273 2.99305c-.49066-1.27864-.03574-6.59288.547751-6.39838.267562.0892 5.740411.16216 12.161888.16216h11.675424v7.13497H90.114164c-9.64507 0-12.088235-.17758-12.364967-.89875zm22.15966-2.41694c.873813-1.41386-1.458817-1.85365-9.883445-1.86345-9.052745-.0109-10.593354.23395-10.593354 1.68106 0 .7333 1.887142.90354 10.015544.90354 6.648806 0 10.165375-.24241 10.461255-.72115zm1.576763-9.45665c0-2.23162.0631-2.3087.92928-1.13511 1.53285 2.07685 2.40538.3518 2.18518-4.32018l-.19561-4.15024-14.43211-.17457-14.432106-.17456v4.87716c0 4.76989.03567 4.87717 1.621585 4.87717 1.18916 0 1.621585.34593 1.621585 1.29726 0 1.24785.432424 1.29727 11.351095 1.29727h11.351101zm-20.107661-1.49761c.636343-1.18902 1.358123-1.29726 8.649652-1.29726 7.563587 0 9.512106.42518 9.512106 2.07563 0 .28539-4.242611.51891-9.428018.51891-9.227019 0-9.413216-.0277-8.73374-1.29728zm17.237223-4.48075c.145556-.14556-.06045-.65635-.457791-1.13511-.581747-.70096-.264873-.87048 1.627226-.87048 1.805333 0 2.349643.26296 2.349643 1.13511 0 .82161-.52252 1.13511-1.89186 1.13511-1.040513 0-1.772764-.11909-1.627218-.26463zm-20.480393-1.03264c0-.68322.689816-.97295 2.316552-.97295 2.059153 0 2.208442.10817 1.343599.97295-.535123.53513-1.577575.97296-2.316551.97296-.761885 0-1.3436-.42125-1.3436-.97296zm76.538821 15.56722v-23.67514h-37.62078v47.35028h37.62078zm-35.02623 1.026c0-11.03003.17716-20.51631.39371-21.0806.34412-.89678 2.38648-1.026 16.21585-1.026h15.82214v42.16121h-32.4317zm7.7836 16.96525c0-.62891.64721-1.43159 1.43825-1.78375.79102-.35215 1.61337-1.37 1.82743-2.26187.36083-1.50332.48981-1.39689 1.76846 1.45942 1.41074 3.15136 3.3981 4.19457 3.3981 1.78375 0-1.17405.43242-1.29727 4.5528-1.29727 4.53243 0 4.55098.008 4.1458 1.62158-.39466 1.57249-.30582 1.62159 2.93379 1.62159h3.34076l-.18944-5.02691c-.14892-3.95175-.39753-5.02692-1.1624-5.02692-.72948 0-1.02163.93329-1.16747 3.72965-.30343 5.81748-1.10274 4.37366-1.10274-1.99191 0-4.23808.16773-5.38287.64864-4.42688.82212 1.63434 2.27021 2.14747 2.27021.80444 0-.56092-1.66633-4.36743-3.70297-8.45892-2.03663-4.09147-3.53783-7.60419-3.33601-7.80602.88528-.88528 2.48318.64785 3.75393 3.60179.75694 1.75957 1.80452 3.19676 2.33013 3.19676 1.29674 0 1.20005-1.1908-.34234-4.21612-1.52507-2.99133-1.80547-5.15906-.42272-3.26804 1.5163 2.07367 2.36861.53895 2.36861-4.26508v-4.53768l-3.08101.19769c-3.32788.21354-4.20679 1.36544-1.29727 1.70021 1.34633.15491 1.77891.55257 1.76402 1.62159-.0178 1.27387-.0863 1.30216-.68087.28123-.75945-1.30391-3.8407-1.52344-5.00738-.35675-.4281.4281-.78518 1.37672-.79351 2.10806-.01.89779-.58962.29062-1.78375-1.86931-1.9336-3.49748-3.39017-4.51505-3.39017-2.36843 0 1.2477-.36836 1.35132-4.80403 1.35132-4.48469 0-4.78148-.0863-4.46479-1.29728.30306-1.15892.0199-1.29726-2.65526-1.29726h-2.9945v4.86476c0 4.43232.11531 4.86476 1.29727 4.86476 1.69927 0 1.67196 1.04797-.039 1.49539-1.33065.34798-1.33105.3598-.0955 2.83234 5.43845 10.88362 7.05748 14.48264 6.51505 14.48264-1.54645 0-3.063-1.4635-4.03572-3.89454-.96507-2.41196-2.57234-3.87773-3.37353-3.07654-.17827.17827.19197 1.40643.82278 2.72924 1.08427 2.27374 1.08579 2.43931.0278 3.03139-.90356.50564-1.11912 1.55714-1.11912 5.4588v4.83253h2.91885c2.35555 0 2.91886-.22067 2.91886-1.14345zm-.97295-4.04562c-.47299-.76531.14054-1.9459 1.01124-1.9459.33569 0 .61035.58377.61035 1.29726 0 1.36802-.94369 1.7455-1.62159.64864zm5.80942-10.09161c-4.9106-10.25849-6.27357-13.82307-4.97967-13.0234.38204.23612 1.44745.0863 2.36756-.33294.92011-.41923 1.85427-.58089 2.07593-.35923.22164.22164 1.35414 4.13654 2.51666 8.69976 3.78226 14.84645 3.36714 13.81015 5.5321 13.81015 1.05649 0 1.9209.29189 1.9209.64863 0 .35675-1.03563.64864-2.30139.64864h-2.30138zm7.21938 6.03765c-1.29114-4.60198-1.90221-6.9851-3.35007-13.06511-2.15317-9.04191-2.00404-8.72255-4.39666-9.4158-2.01906-.58501-2.0117-.59133.7547-.64925l2.7936-.0585 2.28965 5.02691c1.25932 2.7648 3.02962 6.63228 3.93402 8.59441.90439 1.96211 2.18215 4.80799 2.83946 6.32418l1.1951 2.75669h-1.56025c-.85815 0-1.74065.29188-1.96113.64863-.56585.91555-2.26653.80691-2.53842-.16215zm4.44939-21.94791c-.66843-1.08155.83493-2.3218 1.72973-1.427.74847.74847.28002 2.13215-.72185 2.13215-.31464 0-.76818-.31733-1.00788-.70515zm56.7904 12.05624v-23.67514h-37.62077v47.35028h37.62077zm-35.02623 0v-21.0806h31.78306v42.16121h-31.78306zm7.34555 18.70791c.65857-.65857-.87554-2.16774-2.20353-2.16774-.98821 0-1.21785-.62062-1.38001-3.72965-.14585-2.79636-.438-3.72965-1.16748-3.72965-.74302 0-1.01916.98021-1.16849 4.1478-.10751 2.2813-.0437 4.54341.1418 5.02692.34571.90093 4.9673 1.26274 5.77771.45232zm23.00537-4.60012c-.22001-5.83785-1.3952-6.77333-1.68004-1.33734-.18167 3.46704-.29871 3.70176-1.94036 3.8918-1.04415.12087-1.83363.65891-1.96229 1.33734-.17981.9482.27771 1.13511 2.77843 1.13511h2.9937zm-6.07257 1.20861c.91532-1.48102-1.68607-2.0582-8.47287-1.87989-6.09646.16018-7.06252.33604-7.25096 1.31991-.19729 1.03014.50329 1.13511 7.57548 1.13511 4.2861 0 7.95285-.25881 8.14835-.57513zm1.34269-3.64099c0-.6785-17.36367-1.29354-18.98242-.67237-.48572.18639-.69673.64052-.46889 1.00917.55031.89042 19.45131.56315 19.45131-.3368zm.32431-2.6161c0-.19023-.73228-1.86857-1.62731-3.72964-.89501-1.86108-1.25987-2.83837-.81078-2.17175 2.37508 3.52552 2.96965 4.03019 3.41159 2.89581.26847-.68912-1.12546-3.89353-3.84362-8.83588-2.34567-4.26505-4.26485-8.06876-4.26485-8.45269 0-.38393.7426-1.49933 1.65023-2.47869.91574-.98809 1.56531-2.37428 1.45944-3.11442-.17352-1.21287-.70541-1.3508-5.86636-1.52121l-5.67556-.18742v1.94589c0 1.14976.56487 2.47213 1.38061 3.23212.89604.83479 1.22773 1.68458.94505 2.42122-.36705.95654-.63759.80274-1.72065-.97821-1.02027-1.6777-1.64638-2.07122-3.03809-1.90947-1.08914.12657-2.0532.80906-2.54578 1.80222-.6559 1.32243-.86289 1.41591-1.19852.54127-.81586-2.12612-.0519-4.66728 1.51308-5.03298 2.47903-.57927 1.61314-1.64723-1.33555-1.64723h-2.7567l-.19199 4.38718c-.15302 3.49647.0133 4.46596.81905 4.77517.55607.21338 1.44515.0277 1.97574-.41265.81289-.67464.96468-.5279.96468.9326 0 .95326-.44975 2.60295-.99945 3.66595-.97613 1.88765-.82253 3.19191.37592 3.19191.32844 0 1.17368-1.13004 1.87831-2.51121 1.07924-2.1155 3.60988-3.86712 4.41861-3.05839.11915.11915-1.25456 2.92428-3.05268 6.23362-1.79814 3.30935-3.26934 6.24785-3.26934 6.53001 0 1.17528 1.44921 1.28151 2.29275.16806.50004-.66003.91844-.85243.92979-.42756.0113.42489-.27125.95291-.628 1.1734-.35675.22049-.64863.96743-.64863 1.65987 0 1.19026.53103 1.25899 9.72951 1.25899 5.35122 0 9.7295-.15566 9.7295-.34589zm-15.96093-2.62602c.21655-.56431.39371-1.20386.39371-1.42124 0-.21738.37256.11426.82791.73699 1.06359 1.45453 2.65721.84856 3.6817-1.39996.77376-1.69821.81579-1.70944 1.68733-.4508 2.19463 3.16939 4.17162 4.00775 4.19114 1.77726.009-.97006.10141-.99363.63871-.16215.34582.53513.63323 1.19187.6387 1.45942.005.26756-2.7942.48648-6.22148.48648-5.41576 0-6.17989-.1343-5.83772-1.026zm-.27978-5.94682c1.09418-2.22967 2.1077-4.05396 2.25224-4.05396.53881 0-1.6976 4.92418-2.94591 6.48635-.86357 1.0807-.63219.26937.69367-2.43239zm10.51174-2.72357c-.37943-1.08847-.5519-1.97902-.38325-1.97902.43789 0 1.66182 3.36934 1.34062 3.69055-.14712.14711-.57793-.62309-.95737-1.71153zm-5.2978-1.33039c0-.35674.43782-.64863.97295-.64863.53512 0 .97295.29189.97295.64863 0 .35675-.43783.64864-.97295.64864-.53513 0-.97295-.29189-.97295-.64864zm-.78873-4.47211c1.07094-2.54825 2.04549-3.10871 2.58598-1.48721.14121.42364-.2054.77026-.77025.77026s-1.027.40208-1.027.89352-.4279 1.24865-.95088 1.68269c-.76101.63158-.72863.26034.16215-1.85926zm-6.8714-2.5007c.2827-1.46796 1.41624-1.46796 1.69894 0 .13674.71-.1814 1.13511-.84947 1.13511-.66806 0-.9862-.42511-.84947-1.13511zm6.68357-4.05794c-1.5622-1.72622-1.07178-2.05763 2.69058-1.81816l3.15073.20055-1.45942 1.45943c-1.80074 1.80074-2.86075 1.83901-4.38189.15818zm14.8914 12.37781c.20358-.32935-.2399-1.63274-.9855-2.89641-1.41955-2.40598-1.23309-5.82423.23749-4.35364 1.79285 1.79283 2.40039.74226 2.40039-4.15083v-4.86476h-2.91886c-3.32101 0-4.25857 1.70558-1.13511 2.06498 1.5023.17285 1.81679.55088 1.99315 2.39579.24876 2.60215-.83788 4.13275-1.48547 2.09237-.52874-1.66593-2.99071-2.37837-4.82554-1.3964-.98659.52801-1.35769 1.35628-1.35769 3.03035 0 1.93011.29597 2.41546 1.82487 2.99255 1.00688.38006 2.46927 1.80851 3.26253 3.18683 1.43364 2.491 2.28841 3.03398 2.98974 1.89917zm-5.80976-7.83797c-.22203-.35928.0652-.83316.63834-1.05309 1.2419-.47656 1.93404.0486 1.33708 1.0145-.53862.8715-1.44964.88929-1.97542.0386zM62.567574 163.7206v-23.99946H25.595438v47.99892h36.972136zm-34.3776.63731v-20.76763l16.053691.1735 16.053691.17348.171796 19.70527c.122048 13.99897-.04184 19.96267-.5659 20.59414-.587021.70731-3.901034.88886-16.225482.88886H28.189974Zm7.134973 17.84876c0-1.19333-.03723-1.19333 2.818808 0 2.811725 1.17482 8.075085 1.25918 11.654364.1868 2.0553-.61579 2.680738-.61579 2.885999 0 .15252.45756 1.459459.78616 3.12685.78616h2.864802v-4.54925c0-2.50208-.357546-5.12176-.79455-5.82151-.626976-1.00396-.626976-1.43985 0-2.06683 1.186422-1.18642 1.042945-11.14596-.195057-13.53999-.887053-1.71537-.887053-1.91369 0-1.91369.799091 0 .989607-.93655.989607-4.86475v-4.86476h-2.918852c-2.162111 0-2.918853.25225-2.918853.97295 0 1.19987.05624 1.20129-2.99855-.0752-2.920274-1.22017-11.232382-.97876-12.861809.37354-.811811.67375-1.060613.6334-1.390165-.22539-.284958-.7426-1.227903-1.046-3.250843-1.046h-2.849456v4.8107c0 3.04188.273581 4.9019.744061 5.05872.529512.1765.414166 1.24122-.400025 3.69252-1.296542 3.90352-1.120205 8.42347.451533 11.57411.848322 1.70048.865278 2.07717.106594 2.3683-.659959.25325-.902165 1.65769-.902165 5.2313v4.88512h2.918853c2.162111 0 2.918852-.25225 2.918852-.97295zm3.729646-1.72684c-.981059-.35832-1.783743-.89874-1.783743-1.20095s-.656742-.67596-1.459427-.83057c-.802684-.1546 3.064796-.28698 8.594401-.29418 5.529604-.008 9.501851.12832 8.827207.30116-.674638.17285-2.134064.8676-3.24317 1.54393-2.229685 1.35961-7.851974 1.60672-10.935268.48061zm-4.379252-5.64061c.000648-.59719.485074-.75961 1.503319-.50404.852759.21403 2.088128-.0332 2.857136-.57187 1.162047-.81393 1.600193-.82162 3.079707-.054 1.919088.99565 4.16735.67506 4.682619-.66771.262243-.68339.706421-.58626 2.010603.43959 1.192896.93834 2.198875 1.20149 3.500307.91565 1.079612-.23712 1.826301-.12815 1.826301.26655 0 .41947-3.617049.74003-9.730483.86233-7.862014.15727-9.730294.0255-9.729509-.68646zm-2.479391-4.96505c-.964758-2.1174-.994343-9.69802-.04476-11.47229.690802-1.29079.754966-1.26538 1.6923.67.535849 1.10641 1.526223 2.18684 2.200827 2.40094 1.799103.57102 1.694777 4.55326-.147953 5.64762-.755976.44895-1.726197 1.6289-2.156046 2.6221l-.781552 1.8058-.7628-1.67417zm22.261669-.46334c-.355633-.81077-1.303345-1.76224-2.10603-2.11439-1.116435-.48981-1.458459-1.17579-1.455326-2.91886.0033-1.85006.36928-2.48635 1.945901-3.38351 1.067995-.60771 1.941802-1.55634 1.941802-2.10806 0-1.3087 1.047136-1.29326 1.552189.0229.717719 1.87034.414748 9.72406-.419109 10.86443-.749705 1.02528-.863034.99713-1.459427-.3625zM39.703071 155.1262c-.154342-.46275-1.360847-.81391-2.810745-.81805-1.397183-.004-2.467358-.2229-2.37817-.48648.08919-.26356.308101-.47921.486474-.47921h9.729511c6.299227 0 9.405192.23122 9.405192.70018 0 .44259-.72553.54081-1.972263.26698-1.316195-.28908-2.48312-.0985-3.508.57307-1.344949.88125-1.633585.88836-2.323284.0573-1.021261-1.23056-3.490182-1.21743-4.520499.024-.983796 1.1854-1.747348 1.24413-2.108216.16215zm-5.026757-4.54043c0-.26757.583771-.48648 1.297268-.48648s1.297268-.24503 1.297268-.54452c0-1.04678 3.332993-2.05001 6.810657-2.05001 3.477663 0 6.810656 1.00323 6.810656 2.05001 0 .29949.583771.54452 1.297268.54452s1.297268.21891 1.297268.48648c0 .26756-4.232337.48647-9.405192.48647-5.172857 0-9.405193-.21891-9.405193-.48647zm73.944276 13.13483v-23.99946H70.999817v47.99892h37.620773zm-34.377605.66017v-20.76782h31.801305l-.17128 20.59413-.17127 20.59412-15.72938.1737-15.729375.17369zm7.134974 17.8259c0-1.19333-.03723-1.19333 2.818808 0 2.750929 1.14941 8.45569 1.27135 11.403492.24373 1.54866-.53986 2.281181-.53986 2.821047 0 .401073.40107 1.984344.72923 3.518354.72923h2.78914v-4.73503c0-2.75712-.31779-5.05282-.76077-5.4958-.58193-.58193-.58193-1.15326 0-2.43047 1.09506-2.40338.96779-11.00224-.19614-13.25303-.84872-1.64125-.84536-1.89327.0299-2.22911.77663-.29802.94586-1.31282.79475-4.76584l-.19201-4.38718-2.76262-.19974c-1.974563-.14277-2.867408.0733-3.129885.75727-.322331.83999-.658332.8354-2.747511-.0375-2.726176-1.13906-11.352872-.89423-12.604845.35774-1.027423 1.02739-1.781649.93041-1.781649-.22914 0-.72071-.756742-.97296-2.918853-.97296h-2.918852v4.8107c0 2.81893.285308 4.90581.689102 5.0404.486385.16214.486385.76291 0 2.04219-.849854 2.23529-.902691 10.39704-.08575 13.24556.372056 1.29727.372056 2.10378 0 2.10378-.331842 0-.603353 2.33508-.603353 5.18907v5.18908h2.918852c2.162111 0 2.918853-.25225 2.918853-.97295zm3.471704-1.5833c-.766179-.3278-1.586092-.90835-1.822026-1.2901-.235934-.38175-1.012738-.69409-1.726236-.69409-.713497 0-1.162598-.21891-.997995-.48647.164598-.26756 4.633077-.37159 9.929945-.23118 5.296874.14041 9.046906.38946 8.333413.55343-.713503.16398-1.829506.77049-2.480028 1.34779-1.364378 1.21081-9.005818 1.75526-11.237073.80062zm-4.608473-5.7418c-.495187-1.29489.233813-1.61321 1.788698-.78106 1.061062.56787 1.853906.57233 3.192273.018 1.345746-.55742 2.196125-.54822 3.482067.0377 1.392449.63445 1.983912.59018 3.256616-.24373 1.422318-.93193 1.648095-.92603 2.643352.0693 1.014827 1.01481 1.214587 1.01566 2.962342.0125 1.918119-1.10085 2.621812-.96547 2.621812.50441 0 1.2167-19.485255 1.59074-19.94716.3829zm-1.630005-4.00816c-1.873158-2.67022-1.248562-14.35576.762833-14.27183.210293.009.857759.97364 1.438819 2.14413.906297 1.82567.92935 2.30198.162158 3.35118-1.181298 1.61552-1.128797 2.88404.17918 4.32933.971763 1.07379.978107 1.29374.06697 2.3213-.55359.62431-1.114159 1.71888-1.245722 2.43237-.225173 1.22119-.305182 1.20321-1.364233-.30648zm20.928532-.21243c0-.82052-.35027-1.84212-.778369-2.27021-.605384-.60539-.605384-.95133 0-1.55672 1.026079-1.02607 1.002169-4.8761-.03246-5.22347-.640001-.21489-.627834-.61579.05784-1.90315 1.954852-3.67055-.240409-6.60511-3.906034-5.22149-1.386682.52341-2.315481.57371-2.740764.14843-.890016-.89001-3.204939-.80588-4.162089.15128-.626977.62697-1.062879.62697-2.066827 0-1.538547-.96085-3.659626-1.03439-4.208727-.14592-.691722 1.11923-1.621584.70749-1.621584-.71803 0-.97973.290483-1.2552 1.026002-.97295.564299.21654 5.088521.39371 10.053827.39371 8.832765 0 9.027828.0304 9.027828 1.40835 0 .77459.49373 1.95391 1.09717 2.62071 1.36103 1.50392 1.58926 11.04123.3188 13.3219-1.04979 1.88456-2.064603 1.86861-2.064603-.0325zm-13.864558-2.26876c-.17589-.28458-.06942-.92256.236603-1.41771.45837-.74166.735265-.75182 1.57164-.0577.55839.46341.855296 1.10139.65979 1.41771-.442394.71581-2.038241.75312-2.468033.0576zm6.370332-.18769c-.66843-1.08154.834928-2.3218 1.729725-1.427.748472.74847.280028 2.13214-.721845 2.13214-.314639 0-.768184-.31732-1.00788-.70514zm-6.371078-6.7787c-.423623-1.10394 1.064325-1.96835 2.190321-1.27245.510066.31524.496387.69836-.04838 1.35476-.983776 1.18537-1.665556 1.15918-2.141959-.0823zm6.840922.15781c-.830835-1.00108.09016-2.75684 1.114153-2.12398.86337.5336.951332 2.09622.146014 2.59393-.316326.19551-.8834-.0159-1.260167-.46995zM80.72985 150.58577c-.000291-.26757.583247-.48648 1.296743-.48648.713498 0 1.297269-.25648 1.297269-.56994 0-2.21497 10.495688-2.64465 12.837291-.52553.665761.6025 1.698306 1.09547 2.294519 1.09547.596225 0 1.084185.21891 1.084355.48648.00018.26756-4.23192.48647-9.404665.48647-5.172746 0-9.405226-.21891-9.405512-.48647zm73.94376 13.13483v-23.99946h-37.62078v47.99892h37.62078zm-35.02623.64864v-20.75629h32.4317v41.51258h-32.4317zm7.7836 17.83743c0-1.19333-.0373-1.19333 2.81881 0 2.95732 1.23565 8.87842 1.25227 11.79629.0331 1.96425-.82072 2.24938-.82072 2.24938 0 0 .6954.84354.93985 3.24317.93985h3.24317v-4.73503c0-2.60427-.30272-5.03776-.67273-5.40776-.46456-.46457-.46456-1.22029 0-2.44218 1.03584-2.72447.83619-11.16283-.31688-13.3926-.88705-1.71538-.88705-1.9137 0-1.9137.7991 0 .98961-.93655.98961-4.86475v-4.86476h-2.9392c-1.93825 0-3.05937.31313-3.29204.91944-.30171.78625-.69763.77537-2.73309-.0752-2.72617-1.13906-11.35287-.89424-12.60484.35773-1.02742 1.02745-1.78165.93046-1.78165-.22909 0-.7207-.75674-.97295-2.91886-.97295h-2.91884v4.8107c0 2.64589.29239 4.90817.64975 5.02729.43391.14464.43391.96917 0 2.48215-.85449 2.97943-.83139 10.46849.0394 12.75871.48638 1.27929.48638 1.88005 0 2.04219-.40904.13633-.68913 2.31689-.68913 5.36471v5.13502h2.91885c2.16212 0 2.91885-.25224 2.91885-.97295zm3.26647-1.99836-2.24691-.97464 1.92259-1.57118c2.46784-2.01677 2.66457-2.00008 3.86851.32806 1.26729 2.45067 1.97588 2.45067 3.24317 0 .55345-1.07024 1.17265-1.9459 1.37601-1.9459.94587 0 4.13738 2.31049 4.13738 2.99524 0 2.07746-8.37179 2.87266-12.30075 1.16842zm3.85612-6.45392c-1.03991-1.68261-1.28739-2.7582-.93274-4.05396l.48274-1.76371.4226 1.62159c.71312 2.73637 2.26996 1.9723 2.64325-1.29726l.33325-2.91886.47473 3.15105c.35258 2.34018.20607 3.71725-.56931 5.35123-.57423 1.2101-1.13293 2.20018-1.24156 2.20018-.10859 0-.83446-1.03062-1.61296-2.29026zm-3.76636.14039c-.77567-.82567-1.41033-1.84727-1.41033-2.27021 0-.42295-.43782-.76899-.97295-.76899s-.97295.43782-.97295.97295c0 1.25215-.91277 1.24484-1.95891-.0157-1.08383-1.30592-.49179-1.79151 3.19725-2.62235 3.00968-.67784 3.07081-.66061 2.79393.78783-.15569.81444.0257 2.36661.40312 3.44925.82393 2.3635.73748 2.40093-1.07916.4672zm9.30862-.47655c.58748-1.13605.92458-2.61454.74911-3.28553-.29306-1.12066-.0275-1.18573 3.26036-.7993l3.57941.42068-.47548-2.20594c-.26151-1.21327-.87046-2.97927-1.35322-3.92445-.75005-1.46848-.73869-1.83391.0781-2.5118.52573-.43631.95587-.98651.95587-1.22266 0-.7353-3.52423-2.4986-4.37829-2.19062-.44592.16082-.81078-.14736-.81078-.68484s-.75566-1.87529-1.67924-2.97291c-2.85094-3.38815-7.55554-2.43014-9.35084 1.90412-.50949 1.22998-1.1678 1.87622-1.70234 1.6711-.47938-.18395-1.66094.3445-2.62569 1.17433-1.72657 1.48513-1.73311 1.52004-.41702 2.22438 1.33351.71368 1.33255.72465-.36263 4.14307l-1.69967 3.4275-.19593-4.16242c-.18746-3.98255.7277-7.83731 1.86066-7.83731.29392 0 .62337-1.38646.7321-3.08101.16871-2.62923.4117-3.11141 1.65713-3.28828.80268-.114 1.45942-.43201 1.45942-.70669 0-.73581 3.08321-2.01197 4.73311-1.95908 1.08392.0348.80247.32865-1.16563 1.21719-3.30515 1.49221-5.8139 4.15325-5.26473 5.58436.34757.90577.81893.70871 2.98456-1.24782 1.41448-1.2779 3.34603-2.51778 4.29234-2.75528 2.01256-.50512 5.02124.97203 7.23981 3.55447 1.18938 1.38446 1.57917 1.53442 2.05156.78937.91951-1.45022-.99234-3.71324-4.71615-5.58243l-3.34422-1.67865 2.51284.33308c1.38204.18319 2.98741.75325 3.56748 1.26679.58006.51355 1.63843 1.03934 2.35194 1.16844 1.02997.18635 1.33997.83471 1.50458 3.14679.11402 1.60164.69779 3.45407 1.29726 4.11646 1.58613 1.75265 1.54462 11.13381-.0601 13.58292-1.26346 1.9283-2.41741 2.30172-2.41741.78227 0-1.56993-1.92378-1.11559-2.57954.6092-.33084.87018-1.21698 1.91152-1.96921 2.3141-1.35082.72293-1.35451.70652-.29952-1.3336zm-12.66485-7.39183c0-.94706 3.5023-3.59505 4.7623-3.60064.30041-.001-.007.9462-.68146 2.10564-1.32188 2.26981-4.08084 3.28055-4.08084 1.495zm13.26583-1.0688c-1.32852-2.56907-.74954-3.12796 1.50121-1.44913 2.24276 1.67287 2.68867 3.4553.86439 3.4553-.82857 0-1.71839-.75462-2.3656-2.00617zm-5.80654-3.97575c-1.67788-.92849-2.24803-1.80753-2.26028-3.48489-.0222-3.03821 4.48544-4.71675 5.84494-2.17652 1.70911 3.1935-.82162 7.19041-3.58466 5.66141zm-6.81065-1.15305c0-.35675.43782-.64863.97295-.64863.53512 0 .97295.29188.97295.64863 0 .35675-.43783.64863-.97295.64863-.53513 0-.97295-.29188-.97295-.64863zm14.26994 0c0-.35675.43783-.64863.97295-.64863.53513 0 .97295.29188.97295.64863 0 .35675-.43782.64863-.97295.64863-.53512 0-.97295-.29188-.97295-.64863zm58.37706 3.8918v-23.99946h-37.62077v47.99892h37.62077zm-35.02623.64864v-20.75629h31.78306v41.51258h-31.78306zm6.75761 19.0653c.56429-.21654 1.02599-.80781 1.02599-1.31393 0-.75725.37332-.72507 2.10806.18171 2.56405 1.34027 9.13548 1.48224 12.08368.26107 1.82962-.75785 2.17118-.72786 2.88895.25375.56366.77085 1.50342 1.04766 3.0556.90001l2.24158-.21321.1884-5.35123c.11666-3.31383-.0624-5.35123-.47043-5.35123-.43917 0-.44792-.55469-.0263-1.66381.87424-2.29942.79609-12.38591-.10906-14.0772-.55644-1.03972-.55644-1.44751 0-1.63299.46755-.15586.74165-2.02514.74165-5.05793l-.00003-4.8107h-2.91885c-2.11643 0-2.91886.25838-2.91886.93985 0 .80749-.34183.79703-2.42711-.0743-2.8781-1.20255-11.81756-.9351-13.42835.40173-.84243.69915-1.00902.66366-1.00902-.21496 0-.83042-.684-1.05237-3.24317-1.05237h-3.24312v4.8107c0 3.0865.271 4.90104.75612 5.06275.57574.19191.57574.76948 0 2.42106-1.04907 3.00935-.95253 10.98886.15872 13.11881.77746 1.49019.77689 1.78805-.004 2.0877-1.46011.5603-1.26768 9.19881.22426 10.0678 1.30713.76132 2.85481.87112 4.32524.30687zm5.12706-2.65241c-.77678-.15121-1.76115-.69523-2.18748-1.20893-.42634-.51371-1.32319-.93402-1.993-.93402-1.02737 0-1.21785-.50222-1.21785-3.21094 0-2.38385-.2924-3.37441-1.13511-3.84559-.92908-.51944-1.17554-1.75053-1.35782-6.78233-.20075-5.54136-.0888-6.28161 1.13511-7.50551.92205-.92206 1.35782-2.18438 1.35782-3.93335 0-2.4759.13415-2.63899 3.46791-4.21612 1.912-.90452 4.63323-1.64058 6.06524-1.64058 2.86877 0 6.68269 1.12101 6.68269 1.96423 0 .29704.65675.63335 1.45944.74735 1.22178.17352 1.4926.67048 1.66316 3.05188.11208 1.56454.60551 3.24638 1.09653 3.7374 2.02981 2.02981 2.09439 12.181.0916 14.39408-.67026.74062-1.06755 2.3072-1.06755 4.20954 0 2.79952-.12332 3.02994-1.62158 3.02994-.89187 0-1.62159.26334-1.62159.58518 0 .4599-3.31326 2.00936-4.29669 2.00936-.11622 0-.0363-.87493.17755-1.94429.22236-1.11177.0631-2.33687-.37202-2.8611-.56489-.68064-.57114-1.0341-.0243-1.37209.40515-.2504.59259-1.0061.41654-1.67933-.20166-.77116.0174-1.22407.59214-1.22407.50172 0 .91222-.43782.91222-.97295 0-.76618-.93044-.97846-4.37828-.99892-4.20282-.0249-4.30858-.0638-2.63908-.97033.95656-.51939 1.92012-1.51437 2.14124-2.21107.36285-1.14326.65164-1.01711 2.9634 1.29464 2.2238 2.22381 2.56135 2.94604 2.56135 5.48022 0 1.60537.23351 2.91886.51891 2.91886 1.18353 0 2.07563-1.70699 2.07563-3.97164 0-1.8184.48067-2.89559 1.9459-4.36082 2.49132-2.49131 2.63816-5.70909.38031-8.33371-1.33603-1.55305-2.00737-1.80317-4.57846-1.70581-3.36274.12735-3.7822-1.0052-.67962-1.83496 3.16768-.84716 3.88659-3.48644 1.57839-5.79464-1.41975-1.41974-4.30352-1.28569-5.24892.244-.31719.51321-.82161.40033-1.67916-.37573-2.50353-2.26567-5.98839-.89738-5.98839 2.35125 0 2.49091.98193 3.6744 3.04858 3.6744.91311 0 1.49186.38885 1.49186 1.00235 0 .77535-.47739.91741-2.10806.62731-6.027-1.07221-9.32015 7.17547-4.29403 10.75437 1.5516 1.10485 1.86165 1.78638 1.86165 4.0922 0 1.52161.19207 2.95863.4268 3.19337.74936.74937 2.16774-.96119 2.16774-2.61427 0-.9887.30859-1.49336.81078-1.32596.44594.14865.76662.53783.7126.86484-.054.32703.1657 1.08767.48824 1.69034.37553.70167.33157 1.25324-.12222 1.5337-.42772.26436-.54533 1.30847-.29667 2.6339.22657 1.20776.32576 2.1562.22041 2.10761-.10534-.0486-.82711-.21205-1.60388-.36326zm-4.0594-15.25122c-.75685-1.52107-.72922-1.97861.20559-3.40532 1.27116-1.94002 3.0177-2.11865 4.51696-.46197 1.30271 1.43946 1.36085 2.71332.19655 4.3056-.82673 1.13061-.90172 1.10057-1.30963-.52466-.56747-2.26097-2.20245-2.22189-2.50143.0598l-.23371 1.78375-.87433-1.75718zm11.00085-.15931c-.72721-1.35881-.69355-1.83418.22966-3.24317 1.928-2.94249 5.59231-1.69686 5.59231 1.90103 0 2.69205-1.00629 3.53338-1.56476 1.30824-.53654-2.13775-2.32705-2.13431-2.32705.004 0 2.0628-.83512 2.07552-1.93016.0294zm-7.35341-11.15078c-.91816-.91815-.39861-2.17563.89888-2.17563.90678 0 1.27653.35224 1.13511 1.08135-.23152 1.1938-1.33877 1.7895-2.03399 1.09428zm7.12146-.0135c-.89289-.89291-.38519-2.16214.86484-2.16214.86485 0 1.29727.43242 1.29727 1.29726 0 1.25005-1.26923 1.75774-2.16211.86485zM62.567574 106.96513V83.289993H25.595438v47.350277h36.972136zm-34.224445.17351.171161-20.929791H60.297356v41.512571l-16.062694.17351-16.062687.1735zm6.981818 17.73385c0-1.20404.04573-1.20404 2.407367 0 2.936483 1.4971 8.986603 1.63336 12.23622.27558 2.002236-.83657 2.322071-.83657 2.643099 0 .244334.63674 1.308392.95176 3.214682.95176h2.849455v-4.73502c0-2.75712-.317784-5.05282-.760763-5.49579-.581935-.58194-.581935-1.15327 0-2.43047.983809-2.15925.983809-10.7876 0-12.94683-.581935-1.277212-.581935-1.848535 0-2.430468.432762-.43277.760763-2.662446.760763-5.171482v-4.410704h-2.918852c-2.116428 0-2.918853.25837-2.918853.939849 0 .820718-.28514.820718-2.249385 0-2.927992-1.223392-10.504309-1.215245-12.860641.01383-1.589743.829214-1.857914.828724-2.177458-.0044-.243439-.634489-1.310422-.949773-3.213883-.949773h-2.849456v4.810699c0 2.751645.288519 4.906871.67408 5.035391.43679.145601.322624 1.220844-.324317 3.054458-1.252642 3.55037-1.265764 6.76116-.04423 10.82001.617143 2.0506.731692 3.39293.324318 3.80031-.70421.7042-.873445 8.99145-.197426 9.66747.237828.23784 1.551312.43242 2.918853.43242 2.006789 0 2.486428-.23675 2.486428-1.22733zm3.729646-1.4383c-.981059-.3771-1.783743-.95319-1.783743-1.28021 0-.32702-.583771-.59459-1.297268-.59459s-1.297268-.29188-1.297268-.64862c0-.40372 3.688353-.64864 9.767791-.64864 6.34669 0 9.627382.22717 9.366911.64864-.220484.35674-.871465.64862-1.446636.64862-.575162 0-1.596054.49802-2.268648 1.10672-1.464013 1.32491-8.346856 1.80373-11.041139.76808zm-4.378279-6.43019c0-1.2696.05793-1.27599 1.783743-.19631.981059.61375 1.905363 1.20425 2.05401 1.31222.148641.10794-.654043.19632-1.783744.19632-1.629388 0-2.054009-.27127-2.054009-1.31223zm6.162023.56322c.713497-.39025 1.630562-1.1237 2.037923-1.62991.62636-.77833 1.115754-.6658 3.171521.72928l2.430873 1.64964-4.468789-.0197c-3.600152-.0159-4.216633-.15765-3.171528-.72928zm10.555979-.55069c2.625748-1.60092 2.741017-1.60082 2.741017.002 0 1.06707-.431614 1.29684-2.432378 1.29485l-2.432377-.002zm-19.208419-4.24421c-.414017-.90865-.752753-3.65918-.752753-6.11226 0-3.83609.231751-4.73557 1.656286-6.42853.910955-1.082617 1.569676-2.345527 1.463825-2.806466-.209742-.91337.190011-1.162395 1.865997-1.162395.872478 0 .740987.368788-.648634 1.819236-2.254295 2.352975-2.333552 5.432715-.19485 7.571425l1.548082 1.54809-1.548082 1.45435c-1.029824.96746-1.548088 2.1765-1.548088 3.6115 0 2.57077-.800557 2.79031-1.841783.50505zm21.504531-.68618c-.06632-1.28285-.622364-2.8869-1.235641-3.56457-1.054555-1.16527-1.053829-1.29977.01343-2.47905.620651-.6858 1.294693-2.48632 1.497871-4.00116l.369423-2.754221 1.197197 1.478471c2.141815 2.64504 1.322713 13.66553-1.014983 13.65591-.388674-.001-.760945-1.05252-.827268-2.33538zm-11.1005-3.5193-1.49158-1.21309 1.329421-1.32942c.731179-.73118 1.48757-1.32942 1.680857-1.32942.528759 0 3.16401 2.55394 2.844532 2.75677-.152416.0967-.860886.66018-1.574384 1.25208-1.213393 1.00659-1.393706.99774-2.788846-.13692zm-.356036-10.762575-1.792215-1.541596h3.603661c1.982011 0 3.603655.09106 3.603655.202339 0 .111278-.815151.805001-1.811447 1.541597L44.0261 99.345861Zm9.955539-.24433-1.621585-1.268423 1.783743-.01438c1.356132-.011 1.783744.296549 1.783744 1.282823 0 1.569197.06019 1.569197-1.945902 0zm-17.513117-3.891797c0-.356751.478621-.648638 1.063604-.648638.584977 0 1.431898-.503681 1.882038-1.119282 1.145247-1.566223 9.657037-1.948605 11.972939-.537872.891871.543286 2.132384 1.172437 2.756694 1.398119 2.950253 1.066497.347473 1.5563-8.270082 1.5563-5.837706 0-9.405193-.246029-9.405193-.648627zm73.944276 13.296992V83.289993H70.999817v47.350277h37.620773zm-34.377605 0V85.861465l15.729375.173692 15.72938.173692v41.512571l-15.72938.17369-15.729375.17369zm7.134974 17.90736c0-1.20404.04573-1.20404 2.407366 0 2.90939 1.48329 8.977977 1.63697 12.158871.3079 1.919489-.80201 2.24743-.79721 2.567768.0376.262477.68402 1.155323.90004 3.129886.75728l2.76262-.19971.19675-4.19413c.10935-2.33113-.13614-4.81616-.55269-5.59447-.55076-1.02912-.55993-1.75443-.0345-2.73605 1.06289-1.98601.89849-10.85981-.24206-13.06536-.84345-1.631054-.84345-1.893999 0-2.217659.71791-.275483.95691-1.506305.95691-4.927991l-.00001-4.560793h-3.18912c-1.754023 0-3.292487.310099-3.41883.689104-.162124.486384-.7629.486384-2.042182 0-2.611225-.992787-9.822692-.847557-12.45132.250746-1.964245.820718-2.249385.820718-2.249385 0 0-.681479-.802425-.93985-2.918853-.93985h-2.918852v4.8107c0 2.818916.285307 4.905803.689101 5.040401.486386.162135.486386.762901 0 2.042182-.379002.99686-.689101 3.96361-.689101 6.59278 0 2.62917.310099 5.59592.689101 6.59278.486386 1.27928.486386 1.88006 0 2.04219-.409008.13633-.689101 2.31688-.689101 5.36472v5.13501h2.918852c2.431002 0 2.918853-.20513 2.918853-1.22734zm3.729646-1.4383c-.981059-.3771-1.783743-.95319-1.783743-1.28021 0-.32702-.566544-.59459-1.258986-.59459-.692443 0-1.439383-.29188-1.659867-.64862-.260472-.42147 3.020221-.64864 9.36691-.64864 6.079438 0 9.767798.24492 9.767798.64864 0 .35674-.48782.64862-1.084045.64862-.596213 0-1.634334.49802-2.306925 1.10672-1.464016 1.32491-8.34686 1.80373-11.041142.76808zm-5.026913-6.16031c0-.73831.331095-.90604 1.135109-.57505 2.570919 1.0584 3.480694 1.06858 5.025766.0562.918549-.60186 1.627039-1.69008 1.632663-2.50772.02465-3.58018 3.401319-4.29146 3.751783-.7903.11497 1.14858.909008 2.53457 1.945902 3.39656l1.751675 1.45621-7.62145.003c-6.569053.002-7.621448-.14076-7.621448-1.03917zm16.269904.84603c.148639-.10795 1.072945-.69847 2.054001-1.31222 1.725843-1.07968 1.783753-1.07329 1.783753.19631 0 1.04096-.424633 1.31223-2.054018 1.31223-1.129695 0-1.932386-.0883-1.783736-.19632zm-17.73094-4.79839c-1.911349-3.50036-1.227047-13.815681.91652-13.815681.299481 0 .544516.859101.544516 1.909131 0 2.14903 1.975175 3.92858 4.360448 3.92858 1.216188 0 1.477257.35161 1.477257 1.98961 0 1.63789-.211312 1.92254-1.195348 1.61022-1.82292-.57857-4.526083 1.89513-4.766194 4.3616l-.203691 2.09239zm21.057711-.35038c-.0668-2.34681-1.271278-3.73768-3.436938-3.96859-1.7036-.18162-1.88979-.41432-1.88979-2.36174 0-.92269.432424-1.29726 1.497612-1.29726 2.298618 0 3.858306-1.49727 3.941306-3.78359.0833-2.294726.489633-2.534818 1.740023-1.0282.94061 1.13337 1.24139 9.21288.44812 12.03737-.72161 2.56931-2.231213 2.83313-2.300333.40201zm-11.380643-10.65455c-.237834-.23783-.432425-1.09264-.432425-1.89957 0-.80694-.458675-1.925829-1.019283-2.486434-1.134441-1.134444-4.519889-1.378449-5.14274-.370651-.691722 1.119239-1.621584.707502-1.621584-.718023 0-.979739.290483-1.2552 1.026002-.972953.564299.216543 3.960345.39371 7.546766.39371h6.520762l-1.709059 1.344344c-1.150969.905353-1.70906 1.96441-1.70906 3.243167 0 1.55682-.272595 1.89883-1.513477 1.89883-.832418 0-1.708073-.19459-1.945902-.43242zm9.554805-5.081121c-1.166065-.882643-1.137025-.932628.553068-.95217.98107-.01133 1.783753.254025 1.783753.589722 0 1.130392-1.097423 1.300598-2.336821.362448zm-17.122204-3.567331c0-.356751.303704-.648638.674897-.648638.371194 0 1.509631-.617148 2.529861-1.371433 1.598993-1.182186 2.542645-1.336696 6.838601-1.119761 3.870307.195434 5.12364.501818 5.610295 1.371422.344661.615874 1.195922 1.119772 1.891692 1.119772.695766 0 1.265046.291887 1.265046.648638 0 .402598-3.567494.648627-9.405198.648627-5.837707 0-9.405194-.246029-9.405194-.648627zm73.944285 13.296992V83.289993h-37.62078v47.350277h37.62078zm-34.87306.16216.17114-20.918441 16.05369-.173496 16.0537-.173485V128.04573H119.6294Zm7.63043 17.7452c0-1.20404.0457-1.20404 2.40736 0 2.90939 1.48329 8.97798 1.63697 12.15888.3079 1.8991-.79349 2.24886-.79349 2.55334 0 .23267.60632 1.35379.91944 3.29204.91944h2.9392v-4.73502c0-2.75712-.31778-5.05282-.76075-5.49579-.58195-.58194-.58195-1.15327 0-2.43047 1.09505-2.40339.96778-11.00224-.19615-13.25304-.84345-1.631056-.84345-1.894001 0-2.217661.71791-.275482.9569-1.506305.9569-4.927991v-4.560792h-3.24317c-2.39106 0-3.24317.245528-3.24317.934479 0 .812592-.23267.813115-1.78374.0044-2.32724-1.214014-9.92449-1.213197-12.83135.0011-1.96425.820718-2.24939.820718-2.24939 0 0-.681304-.80242-.939675-2.91886-.939675h-2.91884v4.8107c0 2.818916.28531 4.905802.68909 5.040401.4864.162135.4864.762901 0 2.042179-.37899.99686-.68909 3.96361-.68909 6.59278 0 2.62917.3101 5.59592.68909 6.59278.4864 1.27928.4864 1.88006 0 2.04219-.409.13633-.68909 2.31688-.68909 5.36472v5.13501h2.91884c2.43101 0 2.91886-.20513 2.91886-1.22734zm4.12034-1.3283c-.76618-.32814-1.58609-.90895-1.82203-1.2907-.23593-.38175-.99551-.6941-1.68796-.6941-.69244 0-1.25898-.29188-1.25898-.64862 0-.40261 3.56748-.64864 9.40518-.64864 5.83772 0 9.4052.24603 9.4052.64864 0 .35674-.48781.64862-1.08404.64862-.59621 0-1.63433.49802-2.30692 1.10672-1.40075 1.26764-8.39452 1.84425-10.65045.87808zm-5.14977-5.17392c-.14731-.14864-.26784-.80538-.26784-1.45942 0-.80503.47719-1.18916 1.47726-1.18916.8125 0 2.12594-.45435 2.91877-1.00967 1.31519-.9212 1.61263-.90859 3.39428.14385 1.87924 1.1101 2.03792 1.10766 4.21508-.0648 2.10979-1.13619 2.34238-1.14588 3.44963-.14385.65301.59098 1.98839 1.0745 2.96752 1.0745 1.34572 0 1.72727.27706 1.56321 1.1351-.19165 1.00239-1.34152 1.17304-9.83354 1.45943-5.28909.17837-9.73705.20269-9.88437.054zm21.21382-7.54576c-.0423-1.08809-.427-2.3286-.8551-2.7567-.60539-.60539-.60539-.95133 0-1.55672.4281-.4281.77836-1.32098.77836-1.98418 0-.66321.29189-1.02544.64864-.80495.7374.45574.7374 4.23702 0 7.13498l-.49515 1.9459zm-24.0762-3.80272v-3.15046l1.38709 1.76339 1.38708 1.76339-1.38708 1.38707-1.38709 1.38709zm7.35715 1.03101c-.59571-.95388-.51114-1.32454.43729-1.91685 1.63023-1.01809 3.15458.65702 1.93508 2.12644-1.04935 1.26441-1.47535 1.22677-2.37237-.20959zm7.70827-.01c-.63054-.40017-.51292-.80774.49679-1.72152 1.28703-1.16474 1.34753-1.16355 2.23025.0437 1.28522 1.75762-.6882 2.97182-2.72704 1.67787zm-7.40735-7.9404c-.12851-.385533-1.24741-.908298-2.48643-1.161701-1.51277-.309402-2.25278-.824879-2.25278-1.569262 0-.609688.21892-1.108521.48648-1.108521h9.93922c8.56976 0 9.43281.103587 9.23913 1.109316-.12582.653311-1.07696 1.285893-2.31379 1.53885-1.15508.236237-2.46762.734504-2.91678 1.107268-.5787.48028-1.18291.4099-2.07387-.241575-1.6183-1.183329-3.67249-1.170454-5.26361.03301-1.52171 1.150975-2.04962 1.216505-2.35757.292625zm-4.41489-6.434015c0-.356752.3037-.648638.67489-.648638.3712 0 1.50964-.617148 2.52986-1.371433 1.59968-1.182698 2.54214-1.336729 6.84826-1.119282 3.77618.190696 5.19278.524976 5.81173 1.371433.45014.615601 1.29706 1.119282 1.88204 1.119282.58498 0 1.0636.291886 1.0636.648638 0 .402598-3.56748.648627-9.4052.648627-5.8377 0-9.40518-.246029-9.40518-.648627zm73.94427 13.296995V83.29044h-37.62077v47.35028h37.62077zm-35.02623 0V85.884971h31.78306v42.161209h-31.78306zm7.37604 17.7163c-.0755-.99278.13375-.97776 2.26061.16216 2.87029 1.53839 8.8559 1.67746 12.19263.28329 2.85605-1.19334 2.81881-1.19334 2.81881 0 0 .72071.75674.97295 2.91885.97295h2.91886v-5.18907c0-2.93917-.27429-5.18907-.63259-5.18907-.41101 0-.41101-.58276 0-1.66382.87424-2.29941.79609-12.3859-.10906-14.077197-.55645-1.039723-.55645-1.447517 0-1.632995.46755-.15585.74165-2.025125.74165-5.057916v-4.8107h-2.91886c-2.11642 0-2.91885.258371-2.91885.93985 0 .820718-.28515.820718-2.24938 0-2.8736-1.20066-10.50379-1.215583-12.7858-.02505-1.49019.777464-1.78805.776897-2.0877-.0044-.22895-.596681-1.36353-.910919-3.28874-.910919h-2.9392v4.560792c0 3.337705.24657 4.655417.91943 4.913613.7935.3045.7935.654248 0 2.553342-1.10075 2.63449-1.20699 9.656-.19021 12.5727.53986 1.54866.53986 2.28118 0 2.82105-.79414.79414-1.0184 9.04526-.26628 9.79738.25462.25461 1.64107.37622 3.08101.27025 1.98873-.14636 2.59806-.45567 2.53482-1.28675zm3.87927-1.1718c-.76618-.30913-1.58609-.8744-1.82202-1.25615-.23595-.38175-.99553-.69409-1.68797-.69409-.69244 0-1.25898-.29189-1.25898-.64863 0-.4036 3.67559-.64863 9.72951-.64863 5.35122 0 9.7295.15317 9.7295.34036 0 .1872-.65674.63758-1.45942 1.00081-.80269.36323-2.18914 1.08142-3.08101 1.59597-1.77166 1.02212-7.91962 1.21011-10.14961.31036zm-4.76897-6.78277c0-.87413-.51081-1.87504-1.13511-2.22424-.92322-.51638-1.17795-1.74703-1.36457-6.59253-.20225-5.25124-.0676-6.17649 1.13511-7.80331.75051-1.015132 1.36457-2.40079 1.36457-3.079274 0-.966058.35166-1.16636 1.62158-.923588 1.76693.337766 2.0004.817746.92224 1.895908-.38464.384636-.60355 1.537587-.48648 2.562104.16799 1.46993-.19749 2.14103-1.73303 3.18231-1.07024.72576-2.04139 1.98315-2.15809 2.7942-.25543 1.77522 1.48734 4.64281 2.82167 4.64281.68286 0 .95801.73418.95801 2.55625 0 1.40594.29188 2.73666.64863 2.95713 1.1949.73849.66503 1.62159-.97295 1.62159-1.2885 0-1.62158-.32646-1.62158-1.58936zm8.43887.60841c.61923-.74612 1.02643-.80474 1.70101-.24489 1.2483 1.036 1.12222 1.22584-.81411 1.22584-1.44464 0-1.5783-.14784-.8869-.98095zm8.14367-.61427c.68926-1.05194.9036-2.24004.62937-3.48859-.35532-1.61777-.19216-1.9495 1.12097-2.27907 2.22461-.55835 3.49147-3.20036 2.53802-5.29296-.41102-.90209-1.4253-1.89793-2.25394-2.21298-1.26158-.47964-1.46381-.93985-1.24322-2.82921.14487-1.241028-.0563-2.45404-.44724-2.695614-1.24981-.772431-.76279-1.65991.91093-1.65991 1.05075 0 1.62158.36357 1.62158 1.032807 0 .568033.58378 1.774945 1.29727 2.682008 1.88673 2.398589 1.88673 11.576709 0 13.975299-.71349.90706-1.29727 2.25991-1.29727 3.00632 0 1.07778-.4036 1.35712-1.96085 1.35712-1.93385 0-1.94646-.022-.91562-1.59522zm-8.1503-19.809695c0-.356753.60099-.648639 1.33555-.648639.73455 0 1.15515.291886.93467.648639-.52049.842154-2.27022.842154-2.27022 0zm-8.43224-3.24317c0-.356752.56926-.648638 1.26503-.648638.69577 0 1.54703-.503899 1.89169-1.119772.48666-.869604 1.74-1.175989 5.6103-1.371422 4.29595-.216935 5.23961-.06241 6.8386 1.119761 1.02023.754285 2.30461 1.371433 2.85418 1.371433.54957 0 .99921.291886.99921.648638 0 .403589-3.67559.648627-9.7295.648627-6.05392 0-9.72951-.245038-9.72951-.648627zM62.567574 49.88534V26.2102H25.595438v47.350286h36.972136zm-34.3776-.01133V28.782074l16.053691.173489 16.053691.173491.171654 20.02975c.122027 14.238915-.04158 20.286677-.565901 20.918443-.586838.707098-3.902325.888698-16.225339.888698H28.189974Zm7.134973 18.173077c0-1.164943-.258246-1.163298 2.918854-.01874 3.212029 1.157177 8.088433 1.243914 11.554318.205509 2.0553-.615786 2.680738-.615786 2.885999 0 .15252.457562 1.459459.786156 3.12685.786156h2.864802V64.28499c0-2.757123-.317784-5.052818-.760763-5.495794-.581935-.581933-.581935-1.153267 0-2.430468.983809-2.159237.983809-10.787589 0-12.946827-.581935-1.277202-.581935-1.848533 0-2.430465.432762-.432763.760763-2.662442.760763-5.171478v-4.410711h-2.918852c-2.162111 0-2.918853.252246-2.918853.972952 0 1.194193-.505513 1.194193-2.594536 0-2.155002-1.231911-10.14315-1.256733-12.477908-.03878-1.553977.810655-1.843573.804448-2.32161-.04976-.377226-.674069-1.332793-.911629-3.089308-.768023l-2.543144.20792-.194577 4.110596c-.107019 2.260826.111156 4.478989.484841 4.929249.479288.577509.395374 1.754973-.284874 3.99733-1.232386 4.062377-1.230296 7.166213.0072 10.673578.669494 1.897551.773489 3.005276.324317 3.45445-.363657.363658-.661199 2.791958-.661199 5.396226v4.735029h2.918854c2.162111 0 2.918853-.252248 2.918853-.972951zm3.729646-1.726844c-.981059-.358309-1.783743-.919045-1.783743-1.24606 0-.327014-.583771-.594578-1.297268-.594578s-1.297723-.218918-1.29828-.486481c-.000551-.267553 4.304757-.365771 9.567351-.218254 5.262601.147518 8.911621.386728 8.108936.531588-.802684.144848-1.459426.506403-1.459426.803442 0 1.674364-8.255858 2.518501-11.83757 1.210343zm-4.378279-6.07215c0-.832449-.39173-1.905264-.870506-2.384044-1.774442-1.774433-2.372664-3.786119-2.372664-7.978708 0-4.192587.598222-6.204274 2.372664-7.978712.478776-.478779.870506-1.287487.870506-1.797128 0-.684277.882155-.926619 3.373007-.926619h3.373007l-2.636464 1.709513c-3.515804 2.279691-4.929034 4.832897-4.989474 9.014214-.05948 4.116124 1.460925 7.246464 4.546606 9.360799 1.210053.829148 2.120586 1.571212 2.023401 1.649039-.09718.07777-1.417207.299827-2.933389.493343-2.556091.326231-2.756694.241694-2.756694-1.161697zm15.812866-1.768356c3.714739-3.576847 4.879699-7.126926 3.605574-10.987563-1.112797-3.371807-3.496734-6.267679-6.089284-7.396927-1.922123-.837223-1.863423-.862307 2.075901-.886977 3.689222-.0231 4.053962.09671 4.053962 1.331729 0 .746415.583771 2.099262 1.297267 3.006327 1.841058 2.340521 1.83963 9.981947-.0026 13.003193-.712186 1.168048-1.294868 2.70045-1.294868 3.405326 0 1.10608-.445695 1.281591-3.254559 1.281591h-3.254575Zm-9.650843-.203078c-2.691027-1.39106-3.488445-2.286566-4.178436-4.692429l-.595764-2.077301h16.212716l-.461911 1.459427c-.741667 2.343347-2.393285 4.261867-4.588295 5.329768-2.57219 1.251419-3.937817 1.247258-6.38831-.0195zm-4.216121-10.61164c0-2.379265 3.030806-5.553241 5.839061-6.114893 3.574025-.714805 8.39296 2.340988 9.242625 5.86095.465907 1.93014-.385152 2.149951-8.324081 2.149951h-6.757605Zm-1.945902-11.076675c0-.356748.583771-.648634 1.297268-.648634s1.297268-.245033 1.297268-.544518c0-2.23558 9.861052-2.829364 12.501037-.75275.907063.713497 2.11397 1.297268 2.682011 1.297268s1.032801.291886 1.032801.648634c0 .402601-3.567487.648634-9.405192.648634-5.837706 0-9.405193-.246033-9.405193-.648634zM108.62059 49.88534V26.2102H70.999817v47.350286h37.620773zm-34.377605 0V28.781673l15.729375.17369 15.72938.173691v41.512577l-15.72938.173692-15.729375.173681zm7.134974 18.161749c0-1.164943-.258247-1.163298 2.918853-.01874 3.173929 1.143453 8.462222 1.25289 11.380633.235529 1.651582-.575734 2.229146-.575734 2.421061 0 .146352.439045 1.589401.756136 3.441174.756136h3.18912V64.28499c0-2.757123-.31779-5.052818-.76077-5.495794-.58193-.581933-.58193-1.153267 0-2.430468.96212-2.111627.99406-10.987534.046-12.75916-.52559-.982061-.51594-1.70738.0365-2.739514.41322-.772095.66192-3.143663.55269-5.270151l-.19862-3.866343-2.76262-.199743c-2.017013-.145832-2.865647.06867-3.144267.794748-.338997.883424-.588283.887621-2.232071.03759-2.450485-1.267194-10.08457-1.254984-12.529324.02004-2.293148 1.195956-2.358232 1.195846-2.358232-.004 0-.720705-.756742-.972952-2.918853-.972952h-2.918852v4.810703c0 2.818918.285308 4.905805.689102 5.040403.486385.162127.486385.762899 0 2.04218-.849853 2.235291-.902691 10.397042-.08575 13.245561.372057 1.297266.372057 2.10378 0 2.10378-.331841 0-.603353 2.335082-.603353 5.189072v5.189062h2.918853c2.162111 0 2.918853-.252238 2.918853-.972952zm4.101067-1.391888c-.776778-.169161-1.761145-.727881-2.187479-1.241583-.426341-.513713-1.177252-.934011-1.668689-.934011-.491444 0-.893987-.218918-.894544-.486481-.000552-.267553 4.304756-.371588 9.567351-.231172 5.262601.140404 8.984592.389451 8.271099.553437-.713503.163976-1.824593.766027-2.469092 1.337884-1.174653 1.04225-7.634632 1.651784-10.618646 1.001926zm-5.119759-5.356403c-.153213-.153214-.278575-1.000434-.278575-1.882706 0-.882271-.503678-1.972426-1.119283-2.42257-2.219087-1.622635-1.730938-14.567473.549341-14.567473.313466 0 .569942-.729712.569942-1.621584 0-1.546448.172815-1.619679 3.729644-1.580471 2.68004.02954 3.350552.194505 2.382583.586168-2.384729.964914-5.411891 4.555477-6.149213 7.293673-1.292383 4.799543.693313 10.183479 4.688891 12.713309l2.012893 1.274467-3.053821.242881c-1.679604.133586-3.179182.11752-3.332402-.03573zm15.727795-2.359765c1.889339-1.584348 3.033965-3.249236 3.781785-5.500697.989153-2.978065.991483-3.472287.0299-6.367107-1.097423-3.30407-3.483721-6.069429-6.196807-7.181174-1.331574-.545642-.926678-.639298 2.263911-.523669 3.315406.12015 3.920056.331154 4.120939 1.438079.12949.713498.69902 1.819846 1.26563 2.458551 1.4778 1.665819 1.48575 11.086397.0116 13.757301-.59069 1.070244-1.23367 2.456697-1.428833 3.081012-.27381.8759-1.063057 1.132212-3.456207 1.122408l-3.10137-.01274 2.709381-2.272014zm-8.749596-.332276c-1.627215-.652657-3.364971-2.176345-3.364971-2.950444 0-.266045.656743.129295 1.459427.878536 1.930763 1.802199 4.317308 2.335245 6.673814 1.490607 1.779093-.637669 1.827825-.616429.661503.288347-1.408845 1.092911-3.195041 1.189277-5.429773.292954zm7.726924-2.367738c.472302-.786459.998349-1.290308 1.168992-1.119664.170642.170644-.215781.814107-.858731 1.429927-1.11691 1.069786-1.130732 1.055963-.310261-.310263zm-.528417-12.320752c-.789932-.820719-1.200031-1.492218-.911317-1.492218.632515 0 2.992371 2.522005 2.613856 2.793462-.146461.105037-.9126-.480525-1.702539-1.301244zm-9.914844-.44987c0-.140206.452987-.428747 1.006641-.641204.577233-.221505.837594-.112764.610351.25492-.380916.616335-1.616992.911621-1.616992.386284zm3.729646-1.711193c.870091-.349735 2.048762-.349735 2.918852 0 1.191788.479039.924148.586617-1.459426.586617s-2.651214-.107575-1.459426-.586617zm-7.62145-5.16886c0-.356748.437828-.648634.972951-.648634s1.556722-.583771 2.270219-1.297268c1.867638-1.867638 9.478086-1.867638 11.852404 0 .907065.713497 2.113967 1.297268 2.682011 1.297268.568047 0 1.032807.291886 1.032807.648634 0 .402601-3.567494.648634-9.405198.648634-5.837707 0-9.405194-.246033-9.405194-.648634zM154.67361 49.88534V26.2102h-37.62078v47.350286h37.62078zm-35.02623 0V28.804737h32.4317v42.161208h-32.4317zm7.7836 18.161749c0-1.164943-.25825-1.163298 2.91885-.01874 3.37202 1.21482 8.85466 1.2391 11.69625.05185 1.96425-.820707 2.24938-.820707 2.24938 0 0 .695399.84354.93986 3.24317.93986h3.24317V64.28503c0-2.604269-.30272-5.037765-.67273-5.407761-.46456-.464566-.46456-1.220288 0-2.442178.89118-2.343995.8623-11.145555-.0422-12.835479-.52557-.982061-.51593-1.70738.0365-2.739514.41321-.772095.66193-3.143663.55269-5.270151l-.19863-3.866343-2.76262-.199743c-2.017-.145832-2.86563.06867-3.14425.794747-.339.883424-.58829.887622-2.23207.03759-2.45049-1.267195-10.08457-1.254984-12.52933.02004-2.29315 1.195957-2.35823 1.195847-2.35823-.004 0-.720704-.75674-.972951-2.91886-.972951h-2.91884v4.810703c0 2.818918.28531 4.905805.68909 5.040402.4864.162128.4864.7629 0 2.042181-.89033 2.341771-.89033 10.843794 0 13.185561.4864 1.279282.4864 1.880058 0 2.042182-.409.136331-.68909 2.316892-.68909 5.364714v5.135024h2.91884c2.16212 0 2.91886-.252248 2.91886-.972951zm2.43289-2.44697c-1.69428-.794663-3.08119-1.590775-3.08202-1.76915-.00065-.178376 4.30424-.233481 9.56684-.122476l9.56836.201849-3.24317 1.575973c-4.17188 2.027259-8.64561 2.066995-12.81001.113804zm-3.4619-4.309632c-.14753-.14864-.26826-.915592-.26826-1.704319 0-.788738-.43782-1.797428-.97295-2.241537-.53512-.44411-.97295-1.346707-.97295-2.005775 0-1.091355.21069-1.055322 2.36073.403737 1.29841.881117 2.63108 1.602038 2.9615 1.602038 1.02636 0 3.35741-1.38409 5.16005-3.063875l1.72573-1.608098.72588 1.356322c1.01886 1.903753 4.37902 3.506531 6.32654 3.017741.88417-.221913 2.31216-1.108052 3.17331-1.969204 1.82479-1.824793 2.1661-.675652.64365 2.167033-.50715.946919-1.07593 2.217302-1.26398 2.823078-.29745.958203-1.57642 1.126874-9.83645 1.297265-5.22199.107727-9.61526.07429-9.7628-.0744zm20.53924-11.351094c-.0281-.683767.12513-1.066867.34067-.851332.21554.215536.23858.774983.0512 1.243215-.20707.517437-.36076.363739-.39188-.391883zm-12.58316-4.369844c-2.32277-2.356852-6.53432-2.588533-8.79355-.483742-.80435.749369-1.60003 1.224916-1.76818 1.05677-.42145-.421453 1.1299-3.716528 1.74979-3.716528.2758 0 .5938-.802684.70668-1.783742.11288-.981059.42416-1.710772.69172-1.621585.26755.08919 4.71881.162159 9.89166.162159h9.4052v1.542162c0 .84819.43782 1.905529.97295 2.349641.53512.444112.97295 1.540815.97295 2.437115v1.629636l-1.34434-1.709058c-1.09856-1.396587-1.88113-1.709059-4.2802-1.709059-2.39049 0-3.25624.342966-4.6605 1.846231l-1.72463 1.846229zm-7.5757-8.981205c0-.356748.45004-.648634 1.00007-.648634s1.62667-.583771 2.39252-1.297268c1.99512-1.858732 9.33998-1.858732 11.70298 0 .90707.713497 2.11397 1.297268 2.68201 1.297268.56805 0 1.0328.291886 1.0328.648634 0 .402601-3.56748.648634-9.4052.648634-5.8377 0-9.40518-.246033-9.40518-.648634zm73.94427 13.296996V26.2102h-37.62077v47.350286h37.62077zm-35.02623 0V28.804737h31.78306v42.161208h-31.78306zm7.51504 18.25036c.28414-.740462.72936-.745091 2.73634-.02843 3.08618 1.101962 8.85882 1.096091 11.96433-.0122 2.05621-.733807 2.43238-.729406 2.43238.02843 0 .630121.86733.896519 2.91885.896519h2.91886v-4.826471c0-2.654571-.28075-4.999979-.62386-5.212045-.39937-.246824-.39937-.975969 0-2.026399.86737-2.281352.7828-12.37147-.11779-14.054242-.55645-1.039718-.55645-1.447516 0-1.632996.46755-.155851.74165-2.025127.74165-5.057918v-4.810701h-2.91886c-2.11642 0-2.91885.258376-2.91885.939852 0 .820716-.28515.820716-2.24938 0-2.9399-1.228364-10.24888-1.218502-12.63817.01705-1.6438.850037-1.89309.84584-2.23207-.03759-.27863-.726077-1.12727-.940579-3.14426-.794747l-2.76263.199747-.1986 3.866343c-.10924 2.126487.12594 4.472766.52261 5.213953.51453.961404.52496 1.863779.0365 3.148699-.90164 2.371494-.87568 9.407651.0444 12.047127.53985 1.548665.53985 2.281186 0 2.821052-.77557.775557-1.02662 9.037037-.2968 9.766857.81807.818082 5.43644.457311 5.78535-.451931zm3.74027-1.705854c-.76618-.30913-1.58609-.874408-1.82202-1.256157-.23595-.381739-.99553-.694082-1.68797-.694082-.69244 0-1.25898-.323116-1.25898-.718034 0-.394919.46169-.540857 1.026-.324314.56429.216543 4.8696.398012 9.56735.403273 9.01376.0098 9.18874.127955 3.79653 2.557126-1.78797.805458-7.65573.825097-9.62091.03224zm-4.76897-5.842046c0-1.120186.24968-1.329279 1.13511-.950611 2.79847 1.196814 4.51477 1.049951 6.36903-.545018l1.87445-1.612342 1.84681 1.553991c2.10809 1.773834 4.17753 1.981293 6.00158.601658 1.71367-1.296154 2.23203-1.225625 2.23203.303695 0 1.232814-.43242 1.297265-8.70351 1.297265-4.78693 0-9.16521.177167-9.7295.39371-.74519.285961-1.026.000653-1.026-1.042348zm-2.55198-6.570425c-.889-4.14528-.24001-9.44797 1.35105-11.039035.66051-.660509 1.20049-1.857665 1.19995-2.660351-.00064-1.457309.0132-1.459143 9.72952-1.264765l9.73047.194661v1.589082c0 .873996.24504 1.589082.54452 1.589082 1.8138 0 2.90467 10.812401 1.37857 13.663961-1.02144 1.908564-1.69137 1.501162-1.41562-.860871.33251-2.848163-1.85359-5.668116-4.39406-5.668116-1.80073 0-1.83083-.05688-1.21355-2.292495 1.16742-4.22808-.82464-7.437014-4.61683-7.437014-3.69316 0-5.46138 2.257304-5.05786 6.456847.29468 3.066831.22137 3.272662-1.16557 3.272662-2.59115 0-5.19817 3.577592-4.53436 6.222439.21551.858645.11856 1.561169-.21541 1.561169-.33399 0-.92836-1.497263-1.32082-3.327256zm11.30853-2.510449c-.22048-.35675.0541-.648634.61035-.648634.55619 0 1.01124.291884 1.01124.648634 0 .839272-1.10289.839272-1.62159 0zm-8.75655-14.918582c0-.356748.46475-.648634 1.03279-.648634.56805 0 1.77495-.583771 2.68201-1.297268 2.35228-1.850303 9.67713-1.850303 12.02941 0 .90706.713497 2.11396 1.297268 2.68201 1.297268.56803 0 1.03279.291886 1.03279.648634 0 .403595-3.67559.648634-9.7295.648634-6.05392 0-9.72951-.245039-9.72951-.648634z" fill="#000"/></svg>