<?xml version="1.0" encoding="UTF-8"?>
<svg width="93.4mm" height="115mm" version="1.1" viewBox="0 0 93.4 115" xmlns="http://www.w3.org/2000/svg" xmlns:cc="http://creativecommons.org/ns#" xmlns:dc="http://purl.org/dc/elements/1.1/" xmlns:rdf="http://www.w3.org/1999/02/22-rdf-syntax-ns#">
<style/>
<metadata>
<rdf:RDF>
<cc:Work rdf:about="">
<dc:format>image/svg+xml</dc:format>
<dc:type rdf:resource="http://purl.org/dc/dcmitype/StillImage"/>
<dc:title/>
</cc:Work>
</rdf:RDF>
</metadata>
<rect width="93.4" height="115" fill="#005"/>
<path transform="scale(1,-1)" d="m70.806-15.678a23.748 8.3159 0 0 1-12.7 7.3612 23.748 8.3159 0 0 1-24.516-0.51205 23.748 8.3159 0 0 1-10.111-7.8376" fill="none" stroke="#fff" stroke-width="3.5776"/>
<path d="m70.806 100.37a23.748 8.3159 0 0 1-12.7 7.3612 23.748 8.3159 0 0 1-24.516-0.51205 23.748 8.3159 0 0 1-10.111-7.8376" fill="none" stroke="#fff" stroke-width="3.5776"/>
<path transform="matrix(0,-1,-1,0,0,0)" d="m-34.074-13.607a23.748 8.3159 0 0 1-12.7 7.3612 23.748 8.3159 0 0 1-24.516-0.51205 23.748 8.3159 0 0 1-10.111-7.8376m-19.378-10.397v11.246h21.099m64.41-11.246v11.246h-20.57" fill="none" stroke="#fff" stroke-width="3.5776"/>
<path transform="rotate(-90)" d="m-34.088 80.356a23.748 8.3159 0 0 1-12.7 7.3612 23.748 8.3159 0 0 1-24.516-0.51205 23.748 8.3159 0 0 1-10.111-7.8376m-19.365-10.242v11.246h21.099m64.41-11.246v11.246h-20.57" fill="none" stroke="#fff" stroke-width="3.5776"/>
<circle cx="31.904" cy="72.885" r="13.329" fill="none" stroke="#fff" stroke-width="1.8934"/>
<path d="m19.844 23.624h55.374" fill="none" stroke="#fff" stroke-width="4.0845"/>
<path d="m19.844 92.944h55.374" fill="none" stroke="#fff" stroke-width="4.0845"/>
<circle cx="31.833" cy="72.813" r="9.3036" fill="#fff" stroke="#fff" stroke-width="1.8934"/>
<path d="m20.391 8.0649h-13.591v24.037" fill="none" stroke="#fff" stroke-width="4.6419"/>
<path d="m73.728 8.0649h13.591v24.037" fill="none" stroke="#fff" stroke-width="4.6419"/>
<path d="m20.391 107.98h-13.591v-24.655" fill="none" stroke="#fff" stroke-width="4.6419"/>
<path d="m73.728 107.98h13.591v-24.655" fill="none" stroke="#fff" stroke-width="4.6419"/>
<circle cx="61.859" cy="72.885" r="13.329" fill="none" stroke="#fff" stroke-width="1.8934"/>
<circle cx="61.788" cy="72.813" r="9.3036" fill="#fff" stroke="#fff" stroke-width="1.8934"/>
<circle cx="32.113" cy="43.419" r="13.329" fill="none" stroke="#fff" stroke-width="1.8934"/>
<circle cx="32.041" cy="43.347" r="9.3036" fill="#fff" stroke="#fff" stroke-width="1.8934"/>
<circle cx="62.176" cy="43.419" r="13.329" fill="none" stroke="#fff" stroke-width="1.8934"/>
<circle cx="62.105" cy="43.347" r="9.3036" fill="#fff" stroke="#fff" stroke-width="1.8934"/>
</svg>
