<?xml version="1.0" encoding="UTF-8"?>
<svg width="93.4mm" height="115mm" version="1.1" viewBox="0 0 93.4 115" xmlns="http://www.w3.org/2000/svg" xmlns:cc="http://creativecommons.org/ns#" xmlns:dc="http://purl.org/dc/elements/1.1/" xmlns:rdf="http://www.w3.org/1999/02/22-rdf-syntax-ns#">
<style/>
<metadata>
<rdf:RDF>
<cc:Work rdf:about="">
<dc:format>image/svg+xml</dc:format>
<dc:type rdf:resource="http://purl.org/dc/dcmitype/StillImage"/>
<dc:title/>
</cc:Work>
</rdf:RDF>
</metadata>
<rect width="93.4" height="115" fill="#025"/>
<path transform="scale(1,-1)" d="m70.806-15.678a23.748 8.3159 0 0 1-12.7 7.3612 23.748 8.3159 0 0 1-24.516-0.51205 23.748 8.3159 0 0 1-10.111-7.8376" fill="none" stroke="#fff" stroke-width="3.5776"/>
<path d="m70.806 100.37a23.748 8.3159 0 0 1-12.7 7.3612 23.748 8.3159 0 0 1-24.516-0.51205 23.748 8.3159 0 0 1-10.111-7.8376" fill="none" stroke="#fff" stroke-width="3.5776"/>
<path transform="matrix(0,-1,-1,0,0,0)" d="m-34.074-13.607a23.748 8.3159 0 0 1-12.7 7.3612 23.748 8.3159 0 0 1-24.516-0.51205 23.748 8.3159 0 0 1-10.111-7.8376m-19.378-10.397v11.246h21.099m64.41-11.246v11.246h-20.57" fill="none" stroke="#fff" stroke-width="3.5776"/>
<path transform="rotate(-90)" d="m-34.088 80.356a23.748 8.3159 0 0 1-12.7 7.3612 23.748 8.3159 0 0 1-24.516-0.51205 23.748 8.3159 0 0 1-10.111-7.8376m-19.365-10.242v11.246h21.099m64.41-11.246v11.246h-20.57" fill="none" stroke="#fff" stroke-width="3.5776"/>
<path d="m20.391 8.0649h-13.591v24.037" fill="none" stroke="#fff" stroke-width="4.6419"/>
<path d="m73.728 8.0649h13.591v24.037" fill="none" stroke="#fff" stroke-width="4.6419"/>
<path d="m20.391 107.98h-13.591v-24.655" fill="none" stroke="#fff" stroke-width="4.6419"/>
<path d="m73.728 107.98h13.591v-24.655" fill="none" stroke="#fff" stroke-width="4.6419"/>
<circle cx="46.604" cy="39.159" r="13.622" fill="none" stroke="#fff" stroke-width="3.7444"/>
<path d="m41.332 53.45-6.572 24.527 11.845 20.516 11.843-20.513-6.6834-24.943z" fill="none" stroke="#fff" stroke-width="3.7444"/>
<path d="m35.958 48.298-15.669 7.1044-5.6499 15.023 15.833-2.6183 10.187-14.224z" fill="none" stroke="#fff" stroke-width="3.7444"/>
<path d="m57.235 48.369 15.669 7.1044 5.6499 15.023-15.833-2.6183-10.187-14.224z" fill="none" stroke="#fff" stroke-width="3.7444"/>
<path d="m33.117 43.553-9.5748-2.6839-8.087 4.5459 7.9791 4.7299 9.7973-2.5048z" fill="none" stroke="#fff" stroke-width="2.1642"/>
<path d="m60.261 43.553 9.5748-2.6839 8.087 4.5459-7.9791 4.7299-9.7973-2.5048z" fill="none" stroke="#fff" stroke-width="2.1642"/>
<path d="m24.115 76.54v13.418h10.961" fill="none" stroke="#fff" stroke-width="4"/>
<circle cx="24.304" cy="89.391" r="4.9137" fill="#005" stroke="#fff" stroke-width="4"/>
<path d="m70.156 76.54v13.418h-10.961" fill="none" stroke="#fff" stroke-width="4"/>
<circle transform="scale(-1,1)" cx="-69.967" cy="89.391" r="4.9137" fill="#005" stroke="#fff" stroke-width="4"/>
<path transform="scale(1,-1)" d="m70.291-30.979a24.987 22.891 0 0 1-23.477 15.411 24.987 22.891 0 0 1-23.662-15.173" fill="none" stroke="#fff" stroke-width="3.9546"/>
<path d="m46.491 53.219v23.812" fill="none" stroke="#fff" stroke-width="4"/>
</svg>
