<?xml version="1.0" encoding="UTF-8"?>
<svg width="93.4mm" height="115mm" version="1.1" viewBox="0 0 93.4 115" xmlns="http://www.w3.org/2000/svg" xmlns:cc="http://creativecommons.org/ns#" xmlns:dc="http://purl.org/dc/elements/1.1/" xmlns:rdf="http://www.w3.org/1999/02/22-rdf-syntax-ns#">
<style/>
<metadata>
<rdf:RDF>
<cc:Work rdf:about="">
<dc:format>image/svg+xml</dc:format>
<dc:type rdf:resource="http://purl.org/dc/dcmitype/StillImage"/>
<dc:title/>
</cc:Work>
</rdf:RDF>
</metadata>
<rect width="93.4" height="115" fill="#005"/>
<path transform="scale(1,-1)" d="m70.806-15.678a23.748 8.3159 0 0 1-12.7 7.3612 23.748 8.3159 0 0 1-24.516-0.51205 23.748 8.3159 0 0 1-10.111-7.8376" fill="none" stroke="#fff" stroke-width="3.5776"/>
<path d="m70.806 100.37a23.748 8.3159 0 0 1-12.7 7.3612 23.748 8.3159 0 0 1-24.516-0.51205 23.748 8.3159 0 0 1-10.111-7.8376" fill="none" stroke="#fff" stroke-width="3.5776"/>
<path transform="matrix(0,-1,-1,0,0,0)" d="m-34.074-13.607a23.748 8.3159 0 0 1-12.7 7.3612 23.748 8.3159 0 0 1-24.516-0.51205 23.748 8.3159 0 0 1-10.111-7.8376m-19.378-10.397v11.246h21.099m64.41-11.246v11.246h-20.57" fill="none" stroke="#fff" stroke-width="3.5776"/>
<path transform="rotate(-90)" d="m-34.088 80.356a23.748 8.3159 0 0 1-12.7 7.3612 23.748 8.3159 0 0 1-24.516-0.51205 23.748 8.3159 0 0 1-10.111-7.8376m-19.365-10.242v11.246h21.099m64.41-11.246v11.246h-20.57" fill="none" stroke="#fff" stroke-width="3.5776"/>
<path d="m20.391 8.0649h-13.591v24.037" fill="none" stroke="#fff" stroke-width="4.6419"/>
<path d="m73.728 8.0649h13.591v24.037" fill="none" stroke="#fff" stroke-width="4.6419"/>
<path d="m20.391 107.98h-13.591v-24.655" fill="none" stroke="#fff" stroke-width="4.6419"/>
<path d="m73.728 107.98h13.591v-24.655" fill="none" stroke="#fff" stroke-width="4.6419"/>
<circle cx="35.681" cy="26.553" r="7.7257" fill="none" stroke="#fff" stroke-width="3.5102"/>
<circle cx="57.679" cy="26.742" r="7.5717" fill="none" stroke="#fff" stroke-width="3.4402"/>
<path d="m42.9 29.029v25.891" fill="none" stroke="#fff" stroke-width="3.9569"/>
<path d="m50.608 29.029v25.324" fill="none" stroke="#fff" stroke-width="3.9134"/>
<circle cx="29.558" cy="56.98" r="13.578" fill="none" stroke="#fff" stroke-width="4"/>
<circle cx="63.954" cy="56.98" r="13.578" fill="none" stroke="#fff" stroke-width="4"/>
<path d="m29.482 57.074v33.829" fill="none" stroke="#fff" stroke-width="4"/>
<path d="m63.878 57.263v34.018" fill="none" stroke="#fff" stroke-width="4"/>
<path d="m34.812 77.485h23.624" fill="none" stroke="#fff" stroke-width="4.023"/>
<path d="m46.68 77.863v24.568" fill="none" stroke="#fff" stroke-width="4.023"/>
<path d="m39.876 84.969h13.229" fill="none" stroke="#fff" stroke-width="4.023"/>
<circle cx="46.691" cy="97.026" r="5.2917" fill="#005" stroke="#fff" stroke-width="4.023"/>
</svg>
