<?xml version="1.0" encoding="UTF-8"?>
<svg width="93.4mm" height="115mm" version="1.1" viewBox="0 0 93.4 115" xmlns="http://www.w3.org/2000/svg" xmlns:cc="http://creativecommons.org/ns#" xmlns:dc="http://purl.org/dc/elements/1.1/" xmlns:rdf="http://www.w3.org/1999/02/22-rdf-syntax-ns#">
<style/>
<metadata>
<rdf:RDF>
<cc:Work rdf:about="">
<dc:format>image/svg+xml</dc:format>
<dc:type rdf:resource="http://purl.org/dc/dcmitype/StillImage"/>
<dc:title/>
</cc:Work>
</rdf:RDF>
</metadata>
<rect width="93.4" height="115" fill="#005"/>
<path transform="scale(1,-1)" d="m70.806-15.678a23.748 8.3159 0 0 1-12.7 7.3612 23.748 8.3159 0 0 1-24.516-0.51205 23.748 8.3159 0 0 1-10.111-7.8376" fill="#005" stroke="#fff" stroke-width="3.5776"/>
<path d="m70.806 100.37a23.748 8.3159 0 0 1-12.7 7.3612 23.748 8.3159 0 0 1-24.516-0.51205 23.748 8.3159 0 0 1-10.111-7.8376" fill="#005" stroke="#fff" stroke-width="3.5776"/>
<path transform="matrix(0,-1,-1,0,0,0)" d="m-34.074-13.607a23.748 8.3159 0 0 1-12.7 7.3612 23.748 8.3159 0 0 1-24.516-0.51205 23.748 8.3159 0 0 1-10.111-7.8376m-19.378-10.397v11.246h21.099m64.41-11.246v11.246h-20.57" fill="none" stroke="#fff" stroke-width="3.5776"/>
<path transform="rotate(-90)" d="m-34.088 80.356a23.748 8.3159 0 0 1-12.7 7.3612 23.748 8.3159 0 0 1-24.516-0.51205 23.748 8.3159 0 0 1-10.111-7.8376m-19.365-10.242v11.246h21.099m64.41-11.246v11.246h-20.57" fill="#005" stroke="#fff" stroke-width="3.5776"/>
<path d="m20.391 8.0649h-13.591v24.037" fill="none" stroke="#fff" stroke-width="4.6419"/>
<path d="m73.728 8.0649h13.591v24.037" fill="none" stroke="#fff" stroke-width="4.6419"/>
<path d="m20.391 107.98h-13.591v-24.655" fill="none" stroke="#fff" stroke-width="4.6419"/>
<path d="m73.728 107.98h13.591v-24.655" fill="none" stroke="#fff" stroke-width="4.6419"/>
<path d="m21.318 24.001h51.594" fill="#005" stroke="#fff" stroke-width="4.023"/>
<path d="m47.171 24.19v78.241" fill="#005" stroke="#fff" stroke-width="4.023"/>
<path d="m46.982 24.19a24.946 24.946 0 0 1-7.3655 17.698 24.946 24.946 0 0 1-17.747 7.2474" fill="#005" stroke="#fff" stroke-width="4.023"/>
<path transform="scale(-1,1)" d="m-47.025 23.812a24.946 24.946 0 0 1-7.3655 17.698 24.946 24.946 0 0 1-17.747 7.2474" fill="#005" stroke="#fff" stroke-width="4.023"/>
<circle cx="47.082" cy="58.775" r="8.8824" fill="#005" stroke="#fff" stroke-width="4.023"/>
<path d="m46.982 68.64a24.946 24.946 0 0 1-7.3655 17.698 24.946 24.946 0 0 1-17.747 7.2474" fill="#005" stroke="#fff" stroke-width="4.023"/>
<path transform="scale(-1,1)" d="m-47.025 68.262a24.946 24.946 0 0 1-7.3655 17.698 24.946 24.946 0 0 1-17.747 7.2474" fill="#005" stroke="#fff" stroke-width="4.023"/>
<circle cx="28.84" cy="74.726" r="8.6935" fill="#005" stroke="#fff" stroke-width="4.023"/>
<circle cx="65.352" cy="74.726" r="8.6935" fill="#005" stroke="#fff" stroke-width="4.023"/>
<path d="m20.335 75.973v-26.836l0.18899-2.0789" fill="#005" stroke="#fff" stroke-width="4.023"/>
<path d="m73.781 46.907v29.066" fill="#005" stroke="#fff" stroke-width="4.023"/>
</svg>
