<?xml version="1.0" encoding="UTF-8"?>
<svg width="93.4mm" height="115mm" version="1.1" viewBox="0 0 93.4 115" xmlns="http://www.w3.org/2000/svg" xmlns:cc="http://creativecommons.org/ns#" xmlns:dc="http://purl.org/dc/elements/1.1/" xmlns:rdf="http://www.w3.org/1999/02/22-rdf-syntax-ns#">
<style/>
<metadata>
<rdf:RDF>
<cc:Work rdf:about="">
<dc:format>image/svg+xml</dc:format>
<dc:type rdf:resource="http://purl.org/dc/dcmitype/StillImage"/>
<dc:title/>
</cc:Work>
</rdf:RDF>
</metadata>
<rect width="93.4" height="115" fill="#005"/>
<path transform="scale(1,-1)" d="m70.806-15.678a23.748 8.3159 0 0 1-12.7 7.3612 23.748 8.3159 0 0 1-24.516-0.51205 23.748 8.3159 0 0 1-10.111-7.8376" fill="#005" stroke="#fff" stroke-width="3.5776"/>
<path d="m70.806 100.37a23.748 8.3159 0 0 1-12.7 7.3612 23.748 8.3159 0 0 1-24.516-0.51205 23.748 8.3159 0 0 1-10.111-7.8376" fill="#005" stroke="#fff" stroke-width="3.5776"/>
<path transform="matrix(0,-1,-1,0,0,0)" d="m-34.074-13.607a23.748 8.3159 0 0 1-12.7 7.3612 23.748 8.3159 0 0 1-24.516-0.51205 23.748 8.3159 0 0 1-10.111-7.8376m-19.378-10.397v11.246h21.099m64.41-11.246v11.246h-20.57" fill="none" stroke="#fff" stroke-width="3.5776"/>
<path transform="rotate(-90)" d="m-34.088 80.356a23.748 8.3159 0 0 1-12.7 7.3612 23.748 8.3159 0 0 1-24.516-0.51205 23.748 8.3159 0 0 1-10.111-7.8376m-19.365-10.242v11.246h21.099m64.41-11.246v11.246h-20.57" fill="#005" stroke="#fff" stroke-width="3.5776"/>
<path d="m20.391 8.0649h-13.591v24.037" fill="none" stroke="#fff" stroke-width="4.6419"/>
<path d="m73.728 8.0649h13.591v24.037" fill="none" stroke="#fff" stroke-width="4.6419"/>
<path d="m20.391 107.98h-13.591v-24.655" fill="none" stroke="#fff" stroke-width="4.6419"/>
<path d="m73.728 107.98h13.591v-24.655" fill="none" stroke="#fff" stroke-width="4.6419"/>
<circle cx="47.247" cy="78.506" r="6.0476" fill="none" stroke="#fff" stroke-width="4.023"/>
<path d="m42.333 82.285-12.095 12.095h33.829l-12.284-12.284" fill="none" stroke="#fff" stroke-width="4.023"/>
<path d="m47.247 71.815v-54.24l-30.616 30.616" fill="none" stroke="#fff" stroke-width="4.023"/>
<path d="m47.383 71.815v-54.24l30.616 30.616" fill="none" stroke="#fff" stroke-width="4.023"/>
<path d="m39.121 37.987h16.064" fill="none" stroke="#fff" stroke-width="4.023"/>
<path d="m38.743 52.161-17.481 17.481" fill="none" stroke="#fff" stroke-width="4.023"/>
<circle cx="30.238" cy="60.854" r="6.0476" fill="none" stroke="#fff" stroke-width="4.023"/>
<path d="m55.657 52.161 17.481 17.481" fill="none" stroke="#fff" stroke-width="4.023"/>
<circle transform="scale(-1,1)" cx="-64.161" cy="60.854" r="6.0476" fill="none" stroke="#fff" stroke-width="4.023"/>
<path d="m21.734 68.149v20.297" fill="none" stroke="#fff" stroke-width="4.023"/>
<path d="m73.063 68.149v20.297" fill="none" stroke="#fff" stroke-width="4.023"/>
<path d="m38.78 36.021v17.462" fill="none" stroke="#fff" stroke-width="3.7315"/>
<path d="m55.714 36.021v17.462" fill="none" stroke="#fff" stroke-width="3.7315"/>
<path d="m30.994 33.64-9.5439-9.5439" fill="none" stroke="#fff" stroke-width="4.023"/>
<path d="m63.254 33.64 9.5439-9.5439" fill="none" stroke="#fff" stroke-width="4.023"/>
</svg>
