<?xml version="1.0" encoding="UTF-8"?>
<svg width="93.4mm" height="115mm" version="1.1" viewBox="0 0 93.4 115" xmlns="http://www.w3.org/2000/svg" xmlns:cc="http://creativecommons.org/ns#" xmlns:dc="http://purl.org/dc/elements/1.1/" xmlns:rdf="http://www.w3.org/1999/02/22-rdf-syntax-ns#">
<style/>
<metadata>
<rdf:RDF>
<cc:Work rdf:about="">
<dc:format>image/svg+xml</dc:format>
<dc:type rdf:resource="http://purl.org/dc/dcmitype/StillImage"/>
<dc:title/>
</cc:Work>
</rdf:RDF>
</metadata>
<rect width="93.4" height="115" fill="#025"/>
<path transform="scale(1,-1)" d="m70.806-15.678a23.748 8.3159 0 0 1-12.7 7.3612 23.748 8.3159 0 0 1-24.516-0.51205 23.748 8.3159 0 0 1-10.111-7.8376" fill="#025" stroke="#fff" stroke-width="3.5776"/>
<path d="m70.806 100.37a23.748 8.3159 0 0 1-12.7 7.3612 23.748 8.3159 0 0 1-24.516-0.51205 23.748 8.3159 0 0 1-10.111-7.8376" fill="#025" stroke="#fff" stroke-width="3.5776"/>
<path transform="matrix(0,-1,-1,0,0,0)" d="m-34.074-13.607a23.748 8.3159 0 0 1-12.7 7.3612 23.748 8.3159 0 0 1-24.516-0.51205 23.748 8.3159 0 0 1-10.111-7.8376m-19.378-10.397v11.246h21.099m64.41-11.246v11.246h-20.57" fill="none" stroke="#fff" stroke-width="3.5776"/>
<path transform="rotate(-90)" d="m-34.088 80.356a23.748 8.3159 0 0 1-12.7 7.3612 23.748 8.3159 0 0 1-24.516-0.51205 23.748 8.3159 0 0 1-10.111-7.8376m-19.365-10.242v11.246h21.099m64.41-11.246v11.246h-20.57" fill="#025" stroke="#fff" stroke-width="3.5776"/>
<path d="m20.391 8.0649h-13.591v24.037" fill="none" stroke="#fff" stroke-width="4.6419"/>
<path d="m73.728 8.0649h13.591v24.037" fill="none" stroke="#fff" stroke-width="4.6419"/>
<path d="m20.391 107.98h-13.591v-24.655" fill="none" stroke="#fff" stroke-width="4.6419"/>
<path d="m73.728 107.98h13.591v-24.655" fill="none" stroke="#fff" stroke-width="4.6419"/>
<circle cx="21.356" cy="58.208" r="8.6935" fill="#025" stroke="#fff" stroke-width="4.023"/>
<circle cx="72.156" cy="58.208" r="8.6935" fill="#025" stroke="#fff" stroke-width="4.023"/>
<path d="m29.482 58.171h34.396" stroke="#fff" stroke-width="4.023"/>
<circle transform="rotate(90)" cx="23.283" cy="-46.756" r="8.6935" fill="#025" stroke="#fff" stroke-width="4.023"/>
<circle transform="rotate(90)" cx="93.133" cy="-46.756" r="8.6935" fill="#025" stroke="#fff" stroke-width="4.023"/>
<path d="m46.793 33.753v48.759" stroke="#fff" stroke-width="4"/>
<path d="m38.818 47.965-11.906-11.906v-12.662" fill="#025" stroke="#fff" stroke-width="4.023"/>
<path d="m54.898 47.965 11.906-11.906v-12.662" fill="#025" stroke="#fff" stroke-width="4.023"/>
<path d="m38.818 67.682-11.906 11.906v12.662" fill="#025" stroke="#fff" stroke-width="4.023"/>
<path d="m54.898 67.682 11.906 11.906v12.662" fill="#025" stroke="#fff" stroke-width="4.023"/>
</svg>
