<?xml version="1.0" encoding="UTF-8"?>
<svg width="93.4mm" height="115mm" version="1.1" viewBox="0 0 93.4 115" xmlns="http://www.w3.org/2000/svg" xmlns:cc="http://creativecommons.org/ns#" xmlns:dc="http://purl.org/dc/elements/1.1/" xmlns:rdf="http://www.w3.org/1999/02/22-rdf-syntax-ns#">
<style/>
<metadata>
<rdf:RDF>
<cc:Work rdf:about="">
<dc:format>image/svg+xml</dc:format>
<dc:type rdf:resource="http://purl.org/dc/dcmitype/StillImage"/>
<dc:title/>
</cc:Work>
</rdf:RDF>
</metadata>
<rect width="93.4" height="115" fill="#025"/>
<path transform="scale(1,-1)" d="m70.806-15.678a23.748 8.3159 0 0 1-12.7 7.3612 23.748 8.3159 0 0 1-24.516-0.51205 23.748 8.3159 0 0 1-10.111-7.8376" fill="none" stroke="#fff" stroke-width="3.5776"/>
<path d="m70.806 100.37a23.748 8.3159 0 0 1-12.7 7.3612 23.748 8.3159 0 0 1-24.516-0.51205 23.748 8.3159 0 0 1-10.111-7.8376" fill="none" stroke="#fff" stroke-width="3.5776"/>
<path transform="matrix(0,-1,-1,0,0,0)" d="m-34.074-13.607a23.748 8.3159 0 0 1-12.7 7.3612 23.748 8.3159 0 0 1-24.516-0.51205 23.748 8.3159 0 0 1-10.111-7.8376m-19.378-10.397v11.246h21.099m64.41-11.246v11.246h-20.57" fill="none" stroke="#fff" stroke-width="3.5776"/>
<path transform="rotate(-90)" d="m-34.088 80.356a23.748 8.3159 0 0 1-12.7 7.3612 23.748 8.3159 0 0 1-24.516-0.51205 23.748 8.3159 0 0 1-10.111-7.8376m-19.365-10.242v11.246h21.099m64.41-11.246v11.246h-20.57" fill="#025" stroke="#fff" stroke-width="3.5776"/>
<path d="m20.391 8.0649h-13.591v24.037" fill="none" stroke="#fff" stroke-width="4.6419"/>
<path d="m73.728 8.0649h13.591v24.037" fill="none" stroke="#fff" stroke-width="4.6419"/>
<path d="m20.391 107.98h-13.591v-24.655" fill="none" stroke="#fff" stroke-width="4.6419"/>
<path d="m73.728 107.98h13.591v-24.655" fill="none" stroke="#fff" stroke-width="4.6419"/>
<path d="m21.167 21.645v73.127" fill="#025" stroke="#fff" stroke-width="4"/>
<path d="m73.025 21.645v73.127" fill="#025" stroke="#fff" stroke-width="4"/>
<path d="m30.692 16.891v82.635" fill="#025" stroke="#fff" stroke-width="4"/>
<path d="m30.692 16.891v82.635" fill="#025" stroke="#fff" stroke-width="4"/>
<path d="m63.5 16.891v82.635" fill="#025" stroke="#fff" stroke-width="4"/>
<circle cx="46.922" cy="39.704" r="10.335" fill="#025" stroke="#fff" stroke-width="4"/>
<circle cx="46.922" cy="75.687" r="10.335" fill="#025" stroke="#fff" stroke-width="4"/>
<path d="m46.715 30.179v-15.916" fill="#025" stroke="#fff" stroke-width="4"/>
<path d="m46.938 84.543v18.19" fill="#025" stroke="#fff" stroke-width="4"/>
<path d="m36.38 38.72c0.0689 6.4081 0.13781 12.816 3.652 16.02 3.5142 3.2038 10.473 3.2038 13.849 5.9217 3.3762 2.7179 3.1692 8.1689 2.9625 13.612" fill="none" stroke="#fff" stroke-width="4"/>
<circle cx="15.734" cy="57.53" r="5.3743" fill="none" stroke="#fff" stroke-width="4"/>
<circle cx="78.276" cy="57.53" r="5.3743" fill="none" stroke="#fff" stroke-width="4"/>
</svg>
