<?xml version="1.0" encoding="UTF-8" standalone="no"?>
<svg
   xmlns:dc="http://purl.org/dc/elements/1.1/"
   xmlns:cc="http://creativecommons.org/ns#"
   xmlns:rdf="http://www.w3.org/1999/02/22-rdf-syntax-ns#"
   xmlns:svg="http://www.w3.org/2000/svg"
   xmlns="http://www.w3.org/2000/svg"
   xmlns:sodipodi="http://sodipodi.sourceforge.net/DTD/sodipodi-0.dtd"
   xmlns:inkscape="http://www.inkscape.org/namespaces/inkscape"
   width="93.4mm"
   height="115mm"
   version="1.1"
   viewBox="0 0 93.4 115"
   id="svg1596"
   sodipodi:docname="H.svg"
   inkscape:version="1.0.1 (3bc2e813f5, 2020-09-07)"
   inkscape:export-filename="C:\Users\lrush\Documents\KTANE Mods\Match'em Modules\Math 'em\Manual\img\Tiles\H.png"
   inkscape:export-xdpi="96"
   inkscape:export-ydpi="96">
  <defs
     id="defs1600" />
  <sodipodi:namedview
     pagecolor="#ffffff"
     bordercolor="#666666"
     borderopacity="1"
     objecttolerance="10"
     gridtolerance="10"
     guidetolerance="10"
     inkscape:pageopacity="0"
     inkscape:pageshadow="2"
     inkscape:window-width="1920"
     inkscape:window-height="1001"
     id="namedview1598"
     showgrid="false"
     inkscape:zoom="1.3502921"
     inkscape:cx="198.32619"
     inkscape:cy="226.35613"
     inkscape:window-x="-9"
     inkscape:window-y="-9"
     inkscape:window-maximized="1"
     inkscape:current-layer="svg1596"
     inkscape:document-rotation="0" />
  <style
     id="style1554"></style>
  <metadata
     id="metadata1556">
    <rdf:RDF>
      <cc:Work
         rdf:about="">
        <dc:format>image/svg+xml</dc:format>
        <dc:type
           rdf:resource="http://purl.org/dc/dcmitype/StillImage" />
        <dc:title></dc:title>
      </cc:Work>
    </rdf:RDF>
  </metadata>
  <path
     style="fill:#002255;stroke-width:0.264583"
     d="M -0.25925338,57.718454 V 0.17157877 H 46.439706 93.138666 V 57.718454 115.26532 H 46.439706 -0.25925338 Z M 56.096998,110.10096 c 7.41131,-1.11294 13.647109,-3.75429 15.243549,-6.45685 l 0.480962,-0.8142 h 5.102328 5.102329 v -9.768002 -9.768003 l 0.956191,-0.590961 C 88.853731,79.074237 91.93246,60.873825 89.142492,46.286287 87.909311,39.838524 85.363199,34.676421 82.717845,33.26067 l -0.691679,-0.370176 v -9.612583 -9.612582 l -5.09323,-0.0033 -5.093229,-0.0033 -0.597874,-0.922962 C 70.482003,11.562784 68.901708,10.398288 66.54804,9.2769842 56.701492,4.5860157 37.005355,4.5906997 27.084268,9.2863642 c -2.406872,1.1391768 -4.687447,2.9083648 -4.993973,3.8741448 -0.150384,0.473819 -0.47543,0.504766 -5.301752,0.504766 h -5.141546 v 9.50342 9.503421 l -0.900473,0.556525 c -3.9196694,2.422488 -6.6180374,9.96256 -7.3582644,20.56126 -0.913778,13.083622 2.273244,25.910799 7.1873944,28.927938 l 1.071343,0.657773 v 9.727123 9.727115 h 5.141546 c 4.878094,0 5.149998,0.0266 5.306505,0.51975 0.285039,0.89808 2.564964,2.68784 4.765491,3.74096 3.497797,1.67396 8.101624,2.81083 13.758334,3.39748 3.274605,0.33961 12.110226,0.11862 15.478125,-0.38713 z m -16.139583,-3.31318 c -5.408404,-0.65248 -10.480194,-2.09906 -12.977128,-3.70134 -1.649647,-1.05857 -1.91249,-1.40161 -2.089378,-2.72682 l -0.147036,-1.101583 -4.696355,-0.07225 -4.696354,-0.07225 v -9.651185 -9.651188 h -1.427799 c -1.303349,0 -1.499417,-0.08157 -2.249451,-0.93581 C 9.9789156,76.944859 8.5812346,73.164394 7.6200006,67.91028 6.8405936,63.650036 6.7775916,53.063252 7.5058616,48.730542 c 0.919559,-5.47075 2.491395,-9.778252 4.2476824,-11.640458 0.786983,-0.834445 1.028224,-0.93517 2.239799,-0.93517 h 1.357821 V 26.76831 17.381707 l 4.696354,-0.07225 4.696355,-0.07225 0.156632,-1.1738 c 0.120911,-0.906105 0.362273,-1.34676 1.058333,-1.932206 1.947523,-1.638031 6.065947,-3.128813 11.220452,-4.061564 3.850997,-0.6968696 14.943145,-0.7066999 19.042081,-0.01687 7.54661,1.270046 12.122005,3.522345 12.553331,6.179549 l 0.163121,1.004896 4.692087,0.07225 4.692089,0.07225 v 9.386602 9.386604 h 1.170324 c 0.871243,0 1.377121,0.174009 1.979533,0.680903 1.625883,1.368089 3.400364,6.036474 4.417679,11.622222 0.680405,3.735877 0.695521,15.197654 0.02514,19.05 -0.937712,5.388438 -2.506218,9.629275 -4.232362,11.44323 -0.701559,0.737245 -0.999559,0.859895 -2.089285,0.859895 h -1.271024 v 9.651188 9.651185 l -4.692089,0.07225 -4.692087,0.07225 -0.162658,1.002059 c -0.09352,0.57611 -0.488963,1.346 -0.930306,1.81119 -1.632466,1.72069 -6.194352,3.4486 -11.483277,4.34954 -2.952295,0.5029 -13.349468,0.73549 -16.404167,0.36696 z m 13.626042,-6.36029 c 3.061462,-0.38953 6.737813,-1.416491 8.65406,-2.417458 1.308598,-0.683554 2.682066,-1.903055 6.42079,-5.701006 l 4.756102,-4.831445 -1.37954,-1.37954 -1.379537,-1.379538 -4.831771,4.780087 c -5.179468,5.124064 -5.508869,5.346346 -9.329688,6.295694 -1.645465,0.408845 -5.523111,0.950212 -6.806081,0.950212 h -0.734544 v -4.566439 -4.566436 l 14.816667,-8.705262 14.816667,-8.705263 -0.0074,-12.062156 -0.0074,-12.062153 -14.743144,-9.300943 -14.743145,-9.30094 -0.07288,-4.295887 -0.07288,-4.295885 2.200355,0.178536 c 4.747686,0.385225 9.173848,1.721432 11.012188,3.324454 0.583076,0.508438 0.599028,0.586297 0.208529,1.017793 -1.312725,1.450545 -1.686745,4.910581 -0.757822,7.010568 1.111885,2.513595 3.553621,4.137102 6.237224,4.147119 2.152293,0.008 3.428005,-0.435274 4.847,-1.684324 3.290628,-2.896526 3.290628,-7.746121 0,-10.642647 -1.468461,-1.292593 -2.854449,-1.744972 -5.097108,-1.663669 -1.552271,0.05628 -1.736161,0.0035 -2.246352,-0.645139 -3.564573,-4.53162 -17.859077,-6.513482 -28.932514,-4.011347 -4.935204,1.11515 -6.015879,1.798948 -11.306867,7.154438 -2.526634,2.557435 -4.624768,4.735674 -4.662521,4.840531 -0.03775,0.10486 0.525163,0.775528 1.250924,1.490374 l 1.319566,1.299726 4.7022,-4.637363 c 4.172974,-4.115434 4.880872,-4.704462 6.289702,-5.233528 2.190792,-0.822721 5.726358,-1.56622 8.439613,-1.774777 l 2.276012,-0.174948 -0.0056,4.338512 -0.0056,4.338513 -15.602828,8.995833 -15.60283,8.995834 0.06416,12.255431 0.06416,12.255431 15.676563,8.748845 15.676563,8.748845 v 4.594161 4.594162 h -1.090522 c -1.868205,0 -6.491076,-0.78599 -8.521851,-1.448901 -2.001891,-0.653484 -3.973071,-1.665459 -3.812424,-1.957247 1.252715,-2.275343 1.582063,-4.918819 0.851241,-6.832447 -1.884103,-4.933447 -8.305639,-6.15184 -11.828244,-2.244235 -1.467102,1.627449 -1.847148,2.736638 -1.74581,5.095261 0.07222,1.681004 0.21571,2.215637 0.887611,3.307292 1.489643,2.420257 4.714407,3.889814 7.273828,3.31475 1.104934,-0.248261 1.18492,-0.221515 2.316681,0.7747 3.722351,3.276541 14.531025,4.912791 24.268449,3.673821 z M 23.659081,91.082412 c -2.471146,-2.471147 0.488587,-6.397069 3.606993,-4.784479 2.750529,1.422353 1.630003,5.684063 -1.494501,5.684063 -1.026609,0 -1.351082,-0.138174 -2.112492,-0.899584 z M 41.355063,80.934297 c -3.087598,-1.709131 -5.616472,-3.167041 -5.619721,-3.239801 -0.0033,-0.07276 2.5571,-1.604497 5.689664,-3.403862 l 5.695569,-3.271568 5.215816,2.984659 c 2.8687,1.641565 5.364742,3.098665 5.546762,3.238002 0.236127,0.180756 -1.264925,1.191575 -5.239113,3.528055 -3.063533,1.801093 -5.59371,3.274108 -5.622613,3.27337 -0.0289,-7.94e-4 -2.578769,-1.399726 -5.666364,-3.108855 z M 25.407577,72.010309 c -3.272984,-1.813994 -5.986025,-3.403608 -6.02898,-3.532473 -0.08979,-0.269365 11.508128,-6.261465 12.119279,-6.261465 0.439441,0 11.372726,6.218454 11.365606,6.464345 -0.0041,0.141242 -11.16814,6.635268 -11.39806,6.630148 -0.05883,-0.0013 -2.784861,-1.486558 -6.057845,-3.300555 z m 31.293597,-0.09304 c -2.941923,-1.697472 -5.352939,-3.147285 -5.357812,-3.221805 -0.0049,-0.07452 2.335802,-1.487816 5.201507,-3.140652 3.862766,-2.227905 5.316937,-2.94259 5.622396,-2.763245 0.226613,0.133051 2.704172,1.540198 5.505683,3.126992 2.801514,1.586796 5.004171,2.96885 4.894792,3.071233 -0.352134,0.32962 -10.177558,6.059683 -10.350588,6.036331 -0.09187,-0.01241 -2.574057,-1.41138 -5.515978,-3.108854 z M 41.660273,63.195107 c -2.91973,-1.702472 -5.360511,-3.194664 -5.423958,-3.315983 -0.06345,-0.121317 2.297377,-1.471258 5.246274,-2.999867 l 5.361634,-2.77929 5.287846,2.985469 c 2.908316,1.642009 5.287846,3.054313 5.287846,3.138455 0,0.147117 -10.147737,6.107563 -10.3514,6.08007 -0.0548,-0.0074 -2.488512,-1.406382 -5.408242,-3.108854 z M 61.388665,57.688538 C 54.330905,53.674771 48.182258,50.207872 47.725002,49.984321 L 46.893634,49.57786 32.358303,57.021594 c -7.99443,4.094054 -14.615236,7.443735 -14.7129,7.443735 -0.09767,0 -0.176349,-3.720703 -0.174855,-8.268229 l 0.0027,-8.268229 14.615512,-8.442963 c 8.038532,-4.643631 14.734575,-8.439928 14.880096,-8.436218 0.145521,0.0037 6.426068,3.906721 13.956771,8.673356 l 13.692188,8.66661 v 8.302418 c 0,4.566333 -0.0893,8.300578 -0.198437,8.298323 -0.109141,-0.0024 -5.972969,-3.288091 -13.03073,-7.301859 z m 6.553325,-1.570213 c 2.220761,-0.927893 3.346445,-2.796958 3.187536,-5.292537 -0.141047,-2.215118 -1.064107,-3.626223 -2.944871,-4.501896 -1.691188,-0.787408 -2.745817,-0.807537 -4.426585,-0.08449 -0.715312,0.307718 -1.462977,0.497165 -1.661478,0.420994 -0.198498,-0.07617 -3.683439,-2.062847 -7.744314,-4.414837 l -7.383405,-4.276342 -1.322917,0.646819 c -0.727604,0.355751 -4.180416,2.158244 -7.672916,4.005541 l -6.350001,3.358718 -1.34617,-0.414774 c -1.830769,-0.564089 -2.650067,-0.519998 -4.259194,0.229204 -1.880764,0.875673 -2.803824,2.286778 -2.944872,4.501896 -0.158906,2.495579 0.966776,4.364643 3.187537,5.292537 3.48424,1.455809 7.347075,-1.0848 7.347075,-4.832213 v -1.294048 l 6.416146,-3.384857 c 3.52888,-1.861671 6.547866,-3.387529 6.708859,-3.390796 0.160991,-0.0033 3.345913,1.758381 7.077605,3.91478 l 6.78489,3.920723 v 1.028708 c 0,3.484229 3.994976,5.967468 7.347075,4.56687 z m -2.940442,-4.0431 c -0.632333,-0.69872 -0.539213,-1.554221 0.223576,-2.054019 0.61274,-0.401481 0.710176,-0.401481 1.322916,0 0.786416,0.515279 0.867627,1.475529 0.177605,2.09999 -0.628883,0.569132 -1.180754,0.554419 -1.724097,-0.04597 z M 27.430714,51.546058 c -0.632333,-0.698719 -0.539213,-1.554221 0.223575,-2.054018 0.612741,-0.401482 0.710176,-0.401482 1.322917,0 0.786416,0.515278 0.867627,1.475528 0.177604,2.09999 -0.628883,0.569132 -1.180753,0.554418 -1.724096,-0.04597 z M 66.783022,30.339352 c -0.307324,-0.124171 -0.82505,-0.56311 -1.150504,-0.975415 -0.804341,-1.018998 -0.649136,-3.009424 0.30941,-3.967969 1.36141,-1.361411 3.964807,-0.986586 4.834966,0.696117 1.352762,2.615949 -1.230968,5.363605 -3.993872,4.247267 z M 20.113664,108.25387 v -2.24896 H 14.560286 9.0069066 l -0.06902,-11.178643 -0.06902,-11.178646 -2.315104,-0.07645 -2.315104,-0.07645 v 13.504053 13.504046 h 7.9375004 7.9375 z M 89.434499,97.009079 v -13.49375 h -2.38125 -2.38125 v 11.244792 11.244789 h -5.55625 -5.55625 v 2.24896 2.24896 h 7.9375 7.9375 z M 8.9379526,21.404391 9.0070336,10.490328 h 5.5533154 5.553315 V 8.2413704 5.992412 h -7.9375 -7.9375004 V 19.23188 32.471349 l 2.315104,-0.07645 2.315104,-0.07645 z M 89.370825,19.155433 89.439439,5.992412 H 81.49947 73.559499 v 2.2489584 2.2489576 h 5.55625 5.55625 v 10.80382 c 0,5.942102 0.0838,10.887617 0.186219,10.990037 0.102418,0.10242 1.144215,0.15203 2.315104,0.110244 l 2.128886,-0.07597 z"
     id="path2798" />
</svg>
