<?xml version="1.0" encoding="UTF-8"?>
<svg width="228.36mm" height="281.4mm" version="1.1" viewBox="0 0 228.36 281.4" xmlns="http://www.w3.org/2000/svg" xmlns:cc="http://creativecommons.org/ns#" xmlns:dc="http://purl.org/dc/elements/1.1/" xmlns:rdf="http://www.w3.org/1999/02/22-rdf-syntax-ns#">
<style/>
<metadata>
<rdf:RDF>
<cc:Work rdf:about="">
<dc:format>image/svg+xml</dc:format>
<dc:type rdf:resource="http://purl.org/dc/dcmitype/StillImage"/>
<dc:title/>
</cc:Work>
</rdf:RDF>
</metadata>
<g transform="translate(18.929 -12.757)">
<path d="m-18.173 153.46v-140.7h228.36v281.4h-228.36zm49.812 123.56v-5.4987h-27.156l-0.16874-27.332-0.16875-27.332-11.321-0.37383v66.035h38.814zm169.49-27.493v-32.992h-11.644v54.987h-27.17v10.997h38.814zm-111.73 29.034c2.2136-1.1096 4.12-2.1024 4.2365-2.2064 0.17356-0.1549-91.46-174.67-92.187-175.57-0.28578-0.35335-7.9646 3.3-8.393 3.9931-0.27274 0.44132 91.628 175.78 92.138 175.8 0.0991 3e-3 1.9913-0.9034 4.2049-2.013zm-48.908-14.469c4.5621-2.0588 8.6595-6.0044 10.9-10.496 1.6091-3.2261 1.8723-4.5105 1.8968-9.2561 0.0256-4.9524-0.18678-5.9476-2.0978-9.8312-4.0026-8.1344-10.677-12.152-20.188-12.152h-5.1228l-12.594-25.553c-6.9267-14.054-12.77-25.553-12.985-25.553-0.8994 0-8.1167 3.9446-8.1167 4.4362 0 0.29485 5.6471 12.003 12.549 26.018l12.549 25.482-1.8763 2.137c-1.032 1.1754-2.6663 3.6546-3.6318 5.5094-1.5286 2.9366-1.7558 4.1246-1.758 9.1945-2e-3 5.136 0.21868 6.2636 1.8744 9.568 5.3879 10.753 17.877 15.336 28.601 10.496zm-15.397-9.9493c-6.3404-4.021-7.4508-12.928-2.2746-18.245 3.9954-4.1037 9.6534-5.0023 14.698-2.3345 3.7385 1.977 6.6755 7.2137 6.2465 11.138-0.7471 6.8339-5.5338 11.295-12.12 11.295-2.882 0-4.2292-0.38117-6.5507-1.8535zm156.49-16.098-0.18347-25.068-84.614-167.87h-85.845v52.39l84.962 165.62h85.864zm-99.066-23.612c-10.132-20.014-28.198-55.719-40.148-79.346l-21.726-42.958v-34.732h71.172l80.204 161.29v32.133h-71.08zm80.636 31.446c3.6186-2.5433 6.2827-7.695 6.2638-12.113-0.0444-10.391-10.762-17.501-20.04-13.295-3.6097 1.6365-5.5851 3.4428-7.192 6.5764l-1.244 2.4259h-21.297l-0.44206-1.779c-0.24314-0.97844-9.7939-36.712-21.224-79.407l-20.782-77.628-25.825-0.3629-1.7561-3.1741c-4.1715-7.54-14.675-9.4016-21.454-3.8025-3.0016 2.4792-5.5643 7.647-5.5643 11.221 0 3.5749 2.5633 8.7428 5.5643 11.218 4.5472 3.7508 10.237 4.3563 15.639 1.6642 3.3748-1.6817 5.9536-4.4329 5.9536-6.3515 0-0.9 1.2665-1.0322 9.8873-1.0322h9.8873l42.592 159.14h14.747c8.1108 0 14.747 0.2387 14.747 0.53046 0 1.2561 4.9996 6.2177 7.4033 7.347 3.9827 1.8712 10.581 1.3224 14.136-1.1755zm-10.739-8.0677c-3.0721-1.7872-2.5902-6.9152 0.78104-8.3116 4.7917-1.9848 8.8012 4.0859 5.0353 7.6238-1.6069 1.5096-3.9311 1.7845-5.8163 0.68778zm-117.39-158.85c-0.45223-0.18195-1.2757-1.2077-1.83-2.2795-1.6893-3.2668 0.57813-6.9911 4.2563-6.9911 1.8921 0 4.5414 2.8304 4.5414 4.8518 0 3.1711-3.9085 5.6497-6.9678 4.4188zm161.6 125.92c2.1246-1.0725 3.863-2.034 3.863-2.1365 0-0.18773-91.536-174.06-92.203-175.14-0.37642-0.60905-8.7145 3.2146-8.7145 3.9962 0 1.0074 92.084 175.23 92.617 175.23 0.31593 0 2.3128-0.87751 4.4374-1.95zm-1.0901-68.167c1.9215-0.84976 3.6845-1.854 3.9179-2.2315 0.23335-0.37758-4.9693-11.471-11.561-24.651-6.5922-13.181-11.986-24.295-11.986-24.698 0-0.40349 1.0523-1.8984 2.3384-3.322 1.2862-1.4236 3.1056-4.2244 4.0432-6.224 1.4441-3.0799 1.6966-4.4761 1.6514-9.1343-0.0645-6.651-1.4384-10.182-5.7585-14.801-8.5978-9.1918-23.133-9.1794-31.744 0.02699-4.444 4.7509-5.7726 8.15-5.7802 14.787-6e-3 4.933 0.21747 5.9669 2.1233 9.8381 3.7442 7.6054 9.9417 11.632 18.571 12.067l5.1752 0.26064 12.271 24.814c6.7492 13.647 12.49 24.813 12.758 24.813 0.26768 0 2.0588-0.69526 3.9803-1.545zm-38.078-58.872c-1.074-0.46797-2.8626-1.8871-3.9747-3.1537-7.1091-8.0968-1.8704-19.88 8.8385-19.88 6.1905 0 11.061 4.1043 12.011 10.122 0.77983 4.9364-2.6328 10.993-7.2905 12.939-2.6259 1.0972-7.0326 1.0845-9.5847-0.02749zm-152.98-13.33v-26.523h27.17v-10.997h-38.814v64.044h11.644zm196.66-5.4987v-32.022h-38.814v10.997h27.17v53.046h11.644z" fill="#025" stroke-width=".6469"/>
</g>
</svg>
