<?xml version="1.0" encoding="UTF-8"?>
<svg width="93.4mm" height="115mm" version="1.1" viewBox="0 0 93.4 115" xmlns="http://www.w3.org/2000/svg" xmlns:cc="http://creativecommons.org/ns#" xmlns:dc="http://purl.org/dc/elements/1.1/" xmlns:rdf="http://www.w3.org/1999/02/22-rdf-syntax-ns#">
<style/>
<metadata>
<rdf:RDF>
<cc:Work rdf:about="">
<dc:format>image/svg+xml</dc:format>
<dc:type rdf:resource="http://purl.org/dc/dcmitype/StillImage"/>
<dc:title/>
</cc:Work>
</rdf:RDF>
</metadata>
<rect width="93.4" height="115" fill="#025"/>
<path d="m20.391 8.0649h-13.591v24.037" fill="none" stroke="#fff" stroke-width="4.6419"/>
<path d="m73.728 8.0649h13.591v24.037" fill="none" stroke="#fff" stroke-width="4.6419"/>
<path d="m20.391 107.98h-13.591v-24.655" fill="none" stroke="#fff" stroke-width="4.6419"/>
<path d="m73.728 107.98h13.591v-24.655" fill="none" stroke="#fff" stroke-width="4.6419"/>
<path d="m46.945 32.695v49.704" stroke="#fff" stroke-width="4"/>
<path d="m71.797 57.547h-49.704" stroke="#fff" stroke-width="4"/>
<path d="m34.66 46.491v-25.702h24.568v25.702" fill="none" stroke="#fff" stroke-width="4"/>
<path d="m57.339 45.168h25.702v24.568h-25.702" fill="none" stroke="#fff" stroke-width="4"/>
<path d="m34.66 68.001v25.702h24.568v-25.702" fill="none" stroke="#fff" stroke-width="4"/>
<path d="m36.558 45.168h-25.702v24.568h25.702" fill="none" stroke="#fff" stroke-width="4"/>
<path d="m11.566 38.365 23.057-31.561" fill="none" stroke="#fff" stroke-width="4"/>
<path d="m82.248 38.365-23.057-31.561" fill="none" stroke="#fff" stroke-width="4"/>
<path d="m12.095 76.654 23.057 31.561" fill="none" stroke="#fff" stroke-width="4"/>
<path d="m82.248 76.654-23.057 31.561" fill="none" stroke="#fff" stroke-width="4"/>
<circle cx="20.902" cy="25.929" r="6.6146" fill="#025" stroke="#fff" stroke-width="4"/>
<circle cx="73.29" cy="25.929" r="6.6146" fill="#025" stroke="#fff" stroke-width="4"/>
<circle cx="20.902" cy="88.9" r="6.6146" fill="#025" stroke="#fff" stroke-width="4"/>
<circle cx="73.29" cy="88.9" r="6.6146" fill="#025" stroke="#fff" stroke-width="4"/>
<circle cx="46.793" cy="57.679" r="6.6146" fill="#025" stroke="#fff" stroke-width="4"/>
</svg>
